M48
; DRILL file {KiCad 7.0.8-7.0.8~ubuntu22.04.1} date Tue 03 Oct 2023 09:39:11 PM CDT
; FORMAT={-:-/ absolute / inch / decimal}
; #@! TF.CreationDate,2023-10-03T21:39:11-05:00
; #@! TF.GenerationSoftware,Kicad,Pcbnew,7.0.8-7.0.8~ubuntu22.04.1
; #@! TF.FileFunction,Plated,1,2,PTH
FMAT,2
INCH
; #@! TA.AperFunction,Plated,PTH,ViaDrill
T1C0.0157
; #@! TA.AperFunction,Plated,PTH,ComponentDrill
T2C0.0630
; #@! TA.AperFunction,Plated,PTH,ComponentDrill
T3C0.0748
%
G90
G05
T1
X1.95Y-2.55
X2.1Y-2.55
X2.25Y-2.55
X2.4Y-2.55
X2.55Y-2.55
X2.7Y-2.55
X2.85Y-2.55
X3.0Y-2.55
X3.15Y-2.55
X3.3Y-2.55
T2
X1.4986Y-2.3397
X3.9Y-2.3599
T3
X1.3972Y-2.2384
X1.3972Y-2.4411
X1.6Y-2.2384
X1.6Y-2.4411
X3.7986Y-2.2585
X3.7986Y-2.4613
X4.0014Y-2.2585
X4.0014Y-2.4613
T0
M30
