%TF.GenerationSoftware,KiCad,Pcbnew,7.0.8-7.0.8~ubuntu22.04.1*%
%TF.CreationDate,2023-10-03T21:39:05-05:00*%
%TF.ProjectId,bandpass_filter,62616e64-7061-4737-935f-66696c746572,rev?*%
%TF.SameCoordinates,Original*%
%TF.FileFunction,Legend,Top*%
%TF.FilePolarity,Positive*%
%FSLAX46Y46*%
G04 Gerber Fmt 4.6, Leading zero omitted, Abs format (unit mm)*
G04 Created by KiCad (PCBNEW 7.0.8-7.0.8~ubuntu22.04.1) date 2023-10-03 21:39:05*
%MOMM*%
%LPD*%
G01*
G04 APERTURE LIST*
%ADD10C,0.150000*%
%ADD11C,0.254000*%
%ADD12C,0.120000*%
%ADD13C,0.100000*%
G04 APERTURE END LIST*
D10*
X48260000Y-46682966D02*
X88900000Y-46682966D01*
X88900000Y-68440677D01*
X48260000Y-68440677D01*
X48260000Y-46682966D01*
X86090392Y-54544485D02*
X85614202Y-54544485D01*
X85614202Y-54544485D02*
X85614202Y-53544485D01*
X86566583Y-53973056D02*
X86471345Y-53925437D01*
X86471345Y-53925437D02*
X86423726Y-53877818D01*
X86423726Y-53877818D02*
X86376107Y-53782580D01*
X86376107Y-53782580D02*
X86376107Y-53734961D01*
X86376107Y-53734961D02*
X86423726Y-53639723D01*
X86423726Y-53639723D02*
X86471345Y-53592104D01*
X86471345Y-53592104D02*
X86566583Y-53544485D01*
X86566583Y-53544485D02*
X86757059Y-53544485D01*
X86757059Y-53544485D02*
X86852297Y-53592104D01*
X86852297Y-53592104D02*
X86899916Y-53639723D01*
X86899916Y-53639723D02*
X86947535Y-53734961D01*
X86947535Y-53734961D02*
X86947535Y-53782580D01*
X86947535Y-53782580D02*
X86899916Y-53877818D01*
X86899916Y-53877818D02*
X86852297Y-53925437D01*
X86852297Y-53925437D02*
X86757059Y-53973056D01*
X86757059Y-53973056D02*
X86566583Y-53973056D01*
X86566583Y-53973056D02*
X86471345Y-54020675D01*
X86471345Y-54020675D02*
X86423726Y-54068294D01*
X86423726Y-54068294D02*
X86376107Y-54163532D01*
X86376107Y-54163532D02*
X86376107Y-54354008D01*
X86376107Y-54354008D02*
X86423726Y-54449246D01*
X86423726Y-54449246D02*
X86471345Y-54496866D01*
X86471345Y-54496866D02*
X86566583Y-54544485D01*
X86566583Y-54544485D02*
X86757059Y-54544485D01*
X86757059Y-54544485D02*
X86852297Y-54496866D01*
X86852297Y-54496866D02*
X86899916Y-54449246D01*
X86899916Y-54449246D02*
X86947535Y-54354008D01*
X86947535Y-54354008D02*
X86947535Y-54163532D01*
X86947535Y-54163532D02*
X86899916Y-54068294D01*
X86899916Y-54068294D02*
X86852297Y-54020675D01*
X86852297Y-54020675D02*
X86757059Y-53973056D01*
X81010392Y-54449246D02*
X80962773Y-54496866D01*
X80962773Y-54496866D02*
X80819916Y-54544485D01*
X80819916Y-54544485D02*
X80724678Y-54544485D01*
X80724678Y-54544485D02*
X80581821Y-54496866D01*
X80581821Y-54496866D02*
X80486583Y-54401627D01*
X80486583Y-54401627D02*
X80438964Y-54306389D01*
X80438964Y-54306389D02*
X80391345Y-54115913D01*
X80391345Y-54115913D02*
X80391345Y-53973056D01*
X80391345Y-53973056D02*
X80438964Y-53782580D01*
X80438964Y-53782580D02*
X80486583Y-53687342D01*
X80486583Y-53687342D02*
X80581821Y-53592104D01*
X80581821Y-53592104D02*
X80724678Y-53544485D01*
X80724678Y-53544485D02*
X80819916Y-53544485D01*
X80819916Y-53544485D02*
X80962773Y-53592104D01*
X80962773Y-53592104D02*
X81010392Y-53639723D01*
X81581821Y-53973056D02*
X81486583Y-53925437D01*
X81486583Y-53925437D02*
X81438964Y-53877818D01*
X81438964Y-53877818D02*
X81391345Y-53782580D01*
X81391345Y-53782580D02*
X81391345Y-53734961D01*
X81391345Y-53734961D02*
X81438964Y-53639723D01*
X81438964Y-53639723D02*
X81486583Y-53592104D01*
X81486583Y-53592104D02*
X81581821Y-53544485D01*
X81581821Y-53544485D02*
X81772297Y-53544485D01*
X81772297Y-53544485D02*
X81867535Y-53592104D01*
X81867535Y-53592104D02*
X81915154Y-53639723D01*
X81915154Y-53639723D02*
X81962773Y-53734961D01*
X81962773Y-53734961D02*
X81962773Y-53782580D01*
X81962773Y-53782580D02*
X81915154Y-53877818D01*
X81915154Y-53877818D02*
X81867535Y-53925437D01*
X81867535Y-53925437D02*
X81772297Y-53973056D01*
X81772297Y-53973056D02*
X81581821Y-53973056D01*
X81581821Y-53973056D02*
X81486583Y-54020675D01*
X81486583Y-54020675D02*
X81438964Y-54068294D01*
X81438964Y-54068294D02*
X81391345Y-54163532D01*
X81391345Y-54163532D02*
X81391345Y-54354008D01*
X81391345Y-54354008D02*
X81438964Y-54449246D01*
X81438964Y-54449246D02*
X81486583Y-54496866D01*
X81486583Y-54496866D02*
X81581821Y-54544485D01*
X81581821Y-54544485D02*
X81772297Y-54544485D01*
X81772297Y-54544485D02*
X81867535Y-54496866D01*
X81867535Y-54496866D02*
X81915154Y-54449246D01*
X81915154Y-54449246D02*
X81962773Y-54354008D01*
X81962773Y-54354008D02*
X81962773Y-54163532D01*
X81962773Y-54163532D02*
X81915154Y-54068294D01*
X81915154Y-54068294D02*
X81867535Y-54020675D01*
X81867535Y-54020675D02*
X81772297Y-53973056D01*
X58198293Y-49113435D02*
X58388769Y-49113435D01*
X58388769Y-49113435D02*
X58484007Y-49065816D01*
X58484007Y-49065816D02*
X58531626Y-49018196D01*
X58531626Y-49018196D02*
X58626864Y-48875339D01*
X58626864Y-48875339D02*
X58674483Y-48684863D01*
X58674483Y-48684863D02*
X58674483Y-48303911D01*
X58674483Y-48303911D02*
X58626864Y-48208673D01*
X58626864Y-48208673D02*
X58579245Y-48161054D01*
X58579245Y-48161054D02*
X58484007Y-48113435D01*
X58484007Y-48113435D02*
X58293531Y-48113435D01*
X58293531Y-48113435D02*
X58198293Y-48161054D01*
X58198293Y-48161054D02*
X58150674Y-48208673D01*
X58150674Y-48208673D02*
X58103055Y-48303911D01*
X58103055Y-48303911D02*
X58103055Y-48542006D01*
X58103055Y-48542006D02*
X58150674Y-48637244D01*
X58150674Y-48637244D02*
X58198293Y-48684863D01*
X58198293Y-48684863D02*
X58293531Y-48732482D01*
X58293531Y-48732482D02*
X58484007Y-48732482D01*
X58484007Y-48732482D02*
X58579245Y-48684863D01*
X58579245Y-48684863D02*
X58626864Y-48637244D01*
X58626864Y-48637244D02*
X58674483Y-48542006D01*
X58960198Y-48446768D02*
X59341150Y-48446768D01*
X59103055Y-48113435D02*
X59103055Y-48970577D01*
X59103055Y-48970577D02*
X59150674Y-49065816D01*
X59150674Y-49065816D02*
X59245912Y-49113435D01*
X59245912Y-49113435D02*
X59341150Y-49113435D01*
X59674484Y-49113435D02*
X59674484Y-48113435D01*
X60103055Y-49113435D02*
X60103055Y-48589625D01*
X60103055Y-48589625D02*
X60055436Y-48494387D01*
X60055436Y-48494387D02*
X59960198Y-48446768D01*
X59960198Y-48446768D02*
X59817341Y-48446768D01*
X59817341Y-48446768D02*
X59722103Y-48494387D01*
X59722103Y-48494387D02*
X59674484Y-48542006D01*
X61531627Y-48113435D02*
X61722103Y-48113435D01*
X61722103Y-48113435D02*
X61817341Y-48161054D01*
X61817341Y-48161054D02*
X61912579Y-48256292D01*
X61912579Y-48256292D02*
X61960198Y-48446768D01*
X61960198Y-48446768D02*
X61960198Y-48780101D01*
X61960198Y-48780101D02*
X61912579Y-48970577D01*
X61912579Y-48970577D02*
X61817341Y-49065816D01*
X61817341Y-49065816D02*
X61722103Y-49113435D01*
X61722103Y-49113435D02*
X61531627Y-49113435D01*
X61531627Y-49113435D02*
X61436389Y-49065816D01*
X61436389Y-49065816D02*
X61341151Y-48970577D01*
X61341151Y-48970577D02*
X61293532Y-48780101D01*
X61293532Y-48780101D02*
X61293532Y-48446768D01*
X61293532Y-48446768D02*
X61341151Y-48256292D01*
X61341151Y-48256292D02*
X61436389Y-48161054D01*
X61436389Y-48161054D02*
X61531627Y-48113435D01*
X62388770Y-49113435D02*
X62388770Y-48446768D01*
X62388770Y-48637244D02*
X62436389Y-48542006D01*
X62436389Y-48542006D02*
X62484008Y-48494387D01*
X62484008Y-48494387D02*
X62579246Y-48446768D01*
X62579246Y-48446768D02*
X62674484Y-48446768D01*
X63436389Y-49113435D02*
X63436389Y-48113435D01*
X63436389Y-49065816D02*
X63341151Y-49113435D01*
X63341151Y-49113435D02*
X63150675Y-49113435D01*
X63150675Y-49113435D02*
X63055437Y-49065816D01*
X63055437Y-49065816D02*
X63007818Y-49018196D01*
X63007818Y-49018196D02*
X62960199Y-48922958D01*
X62960199Y-48922958D02*
X62960199Y-48637244D01*
X62960199Y-48637244D02*
X63007818Y-48542006D01*
X63007818Y-48542006D02*
X63055437Y-48494387D01*
X63055437Y-48494387D02*
X63150675Y-48446768D01*
X63150675Y-48446768D02*
X63341151Y-48446768D01*
X63341151Y-48446768D02*
X63436389Y-48494387D01*
X64293532Y-49065816D02*
X64198294Y-49113435D01*
X64198294Y-49113435D02*
X64007818Y-49113435D01*
X64007818Y-49113435D02*
X63912580Y-49065816D01*
X63912580Y-49065816D02*
X63864961Y-48970577D01*
X63864961Y-48970577D02*
X63864961Y-48589625D01*
X63864961Y-48589625D02*
X63912580Y-48494387D01*
X63912580Y-48494387D02*
X64007818Y-48446768D01*
X64007818Y-48446768D02*
X64198294Y-48446768D01*
X64198294Y-48446768D02*
X64293532Y-48494387D01*
X64293532Y-48494387D02*
X64341151Y-48589625D01*
X64341151Y-48589625D02*
X64341151Y-48684863D01*
X64341151Y-48684863D02*
X63864961Y-48780101D01*
X64769723Y-49113435D02*
X64769723Y-48446768D01*
X64769723Y-48637244D02*
X64817342Y-48542006D01*
X64817342Y-48542006D02*
X64864961Y-48494387D01*
X64864961Y-48494387D02*
X64960199Y-48446768D01*
X64960199Y-48446768D02*
X65055437Y-48446768D01*
X66722104Y-49018196D02*
X66674485Y-49065816D01*
X66674485Y-49065816D02*
X66531628Y-49113435D01*
X66531628Y-49113435D02*
X66436390Y-49113435D01*
X66436390Y-49113435D02*
X66293533Y-49065816D01*
X66293533Y-49065816D02*
X66198295Y-48970577D01*
X66198295Y-48970577D02*
X66150676Y-48875339D01*
X66150676Y-48875339D02*
X66103057Y-48684863D01*
X66103057Y-48684863D02*
X66103057Y-48542006D01*
X66103057Y-48542006D02*
X66150676Y-48351530D01*
X66150676Y-48351530D02*
X66198295Y-48256292D01*
X66198295Y-48256292D02*
X66293533Y-48161054D01*
X66293533Y-48161054D02*
X66436390Y-48113435D01*
X66436390Y-48113435D02*
X66531628Y-48113435D01*
X66531628Y-48113435D02*
X66674485Y-48161054D01*
X66674485Y-48161054D02*
X66722104Y-48208673D01*
X67150676Y-49113435D02*
X67150676Y-48113435D01*
X67579247Y-49113435D02*
X67579247Y-48589625D01*
X67579247Y-48589625D02*
X67531628Y-48494387D01*
X67531628Y-48494387D02*
X67436390Y-48446768D01*
X67436390Y-48446768D02*
X67293533Y-48446768D01*
X67293533Y-48446768D02*
X67198295Y-48494387D01*
X67198295Y-48494387D02*
X67150676Y-48542006D01*
X68436390Y-49065816D02*
X68341152Y-49113435D01*
X68341152Y-49113435D02*
X68150676Y-49113435D01*
X68150676Y-49113435D02*
X68055438Y-49065816D01*
X68055438Y-49065816D02*
X68007819Y-48970577D01*
X68007819Y-48970577D02*
X68007819Y-48589625D01*
X68007819Y-48589625D02*
X68055438Y-48494387D01*
X68055438Y-48494387D02*
X68150676Y-48446768D01*
X68150676Y-48446768D02*
X68341152Y-48446768D01*
X68341152Y-48446768D02*
X68436390Y-48494387D01*
X68436390Y-48494387D02*
X68484009Y-48589625D01*
X68484009Y-48589625D02*
X68484009Y-48684863D01*
X68484009Y-48684863D02*
X68007819Y-48780101D01*
X68912581Y-49113435D02*
X68912581Y-48113435D01*
X68912581Y-48494387D02*
X69007819Y-48446768D01*
X69007819Y-48446768D02*
X69198295Y-48446768D01*
X69198295Y-48446768D02*
X69293533Y-48494387D01*
X69293533Y-48494387D02*
X69341152Y-48542006D01*
X69341152Y-48542006D02*
X69388771Y-48637244D01*
X69388771Y-48637244D02*
X69388771Y-48922958D01*
X69388771Y-48922958D02*
X69341152Y-49018196D01*
X69341152Y-49018196D02*
X69293533Y-49065816D01*
X69293533Y-49065816D02*
X69198295Y-49113435D01*
X69198295Y-49113435D02*
X69007819Y-49113435D01*
X69007819Y-49113435D02*
X68912581Y-49065816D01*
X69722105Y-48446768D02*
X69960200Y-49113435D01*
X70198295Y-48446768D02*
X69960200Y-49113435D01*
X69960200Y-49113435D02*
X69864962Y-49351530D01*
X69864962Y-49351530D02*
X69817343Y-49399149D01*
X69817343Y-49399149D02*
X69722105Y-49446768D01*
X70531629Y-49065816D02*
X70626867Y-49113435D01*
X70626867Y-49113435D02*
X70817343Y-49113435D01*
X70817343Y-49113435D02*
X70912581Y-49065816D01*
X70912581Y-49065816D02*
X70960200Y-48970577D01*
X70960200Y-48970577D02*
X70960200Y-48922958D01*
X70960200Y-48922958D02*
X70912581Y-48827720D01*
X70912581Y-48827720D02*
X70817343Y-48780101D01*
X70817343Y-48780101D02*
X70674486Y-48780101D01*
X70674486Y-48780101D02*
X70579248Y-48732482D01*
X70579248Y-48732482D02*
X70531629Y-48637244D01*
X70531629Y-48637244D02*
X70531629Y-48589625D01*
X70531629Y-48589625D02*
X70579248Y-48494387D01*
X70579248Y-48494387D02*
X70674486Y-48446768D01*
X70674486Y-48446768D02*
X70817343Y-48446768D01*
X70817343Y-48446768D02*
X70912581Y-48494387D01*
X71388772Y-49113435D02*
X71388772Y-48113435D01*
X71817343Y-49113435D02*
X71817343Y-48589625D01*
X71817343Y-48589625D02*
X71769724Y-48494387D01*
X71769724Y-48494387D02*
X71674486Y-48446768D01*
X71674486Y-48446768D02*
X71531629Y-48446768D01*
X71531629Y-48446768D02*
X71436391Y-48494387D01*
X71436391Y-48494387D02*
X71388772Y-48542006D01*
X72674486Y-49065816D02*
X72579248Y-49113435D01*
X72579248Y-49113435D02*
X72388772Y-49113435D01*
X72388772Y-49113435D02*
X72293534Y-49065816D01*
X72293534Y-49065816D02*
X72245915Y-48970577D01*
X72245915Y-48970577D02*
X72245915Y-48589625D01*
X72245915Y-48589625D02*
X72293534Y-48494387D01*
X72293534Y-48494387D02*
X72388772Y-48446768D01*
X72388772Y-48446768D02*
X72579248Y-48446768D01*
X72579248Y-48446768D02*
X72674486Y-48494387D01*
X72674486Y-48494387D02*
X72722105Y-48589625D01*
X72722105Y-48589625D02*
X72722105Y-48684863D01*
X72722105Y-48684863D02*
X72245915Y-48780101D01*
X73055439Y-48446768D02*
X73293534Y-49113435D01*
X73293534Y-49113435D02*
X73531629Y-48446768D01*
X75007820Y-48589625D02*
X74674487Y-48589625D01*
X74674487Y-49113435D02*
X74674487Y-48113435D01*
X74674487Y-48113435D02*
X75150677Y-48113435D01*
X75531630Y-49113435D02*
X75531630Y-48446768D01*
X75531630Y-48113435D02*
X75484011Y-48161054D01*
X75484011Y-48161054D02*
X75531630Y-48208673D01*
X75531630Y-48208673D02*
X75579249Y-48161054D01*
X75579249Y-48161054D02*
X75531630Y-48113435D01*
X75531630Y-48113435D02*
X75531630Y-48208673D01*
X76150677Y-49113435D02*
X76055439Y-49065816D01*
X76055439Y-49065816D02*
X76007820Y-48970577D01*
X76007820Y-48970577D02*
X76007820Y-48113435D01*
X76388773Y-48446768D02*
X76769725Y-48446768D01*
X76531630Y-48113435D02*
X76531630Y-48970577D01*
X76531630Y-48970577D02*
X76579249Y-49065816D01*
X76579249Y-49065816D02*
X76674487Y-49113435D01*
X76674487Y-49113435D02*
X76769725Y-49113435D01*
X77484011Y-49065816D02*
X77388773Y-49113435D01*
X77388773Y-49113435D02*
X77198297Y-49113435D01*
X77198297Y-49113435D02*
X77103059Y-49065816D01*
X77103059Y-49065816D02*
X77055440Y-48970577D01*
X77055440Y-48970577D02*
X77055440Y-48589625D01*
X77055440Y-48589625D02*
X77103059Y-48494387D01*
X77103059Y-48494387D02*
X77198297Y-48446768D01*
X77198297Y-48446768D02*
X77388773Y-48446768D01*
X77388773Y-48446768D02*
X77484011Y-48494387D01*
X77484011Y-48494387D02*
X77531630Y-48589625D01*
X77531630Y-48589625D02*
X77531630Y-48684863D01*
X77531630Y-48684863D02*
X77055440Y-48780101D01*
X77960202Y-49113435D02*
X77960202Y-48446768D01*
X77960202Y-48637244D02*
X78007821Y-48542006D01*
X78007821Y-48542006D02*
X78055440Y-48494387D01*
X78055440Y-48494387D02*
X78150678Y-48446768D01*
X78150678Y-48446768D02*
X78245916Y-48446768D01*
X74280945Y-65285239D02*
X74280945Y-65761429D01*
X74280945Y-65761429D02*
X73280945Y-65761429D01*
X73280945Y-65047143D02*
X73280945Y-64380477D01*
X73280945Y-64380477D02*
X74280945Y-64809048D01*
X45566741Y-57950319D02*
X45233408Y-57474128D01*
X44995313Y-57950319D02*
X44995313Y-56950319D01*
X44995313Y-56950319D02*
X45376265Y-56950319D01*
X45376265Y-56950319D02*
X45471503Y-56997938D01*
X45471503Y-56997938D02*
X45519122Y-57045557D01*
X45519122Y-57045557D02*
X45566741Y-57140795D01*
X45566741Y-57140795D02*
X45566741Y-57283652D01*
X45566741Y-57283652D02*
X45519122Y-57378890D01*
X45519122Y-57378890D02*
X45471503Y-57426509D01*
X45471503Y-57426509D02*
X45376265Y-57474128D01*
X45376265Y-57474128D02*
X44995313Y-57474128D01*
X46519122Y-57950319D02*
X45947694Y-57950319D01*
X46233408Y-57950319D02*
X46233408Y-56950319D01*
X46233408Y-56950319D02*
X46138170Y-57093176D01*
X46138170Y-57093176D02*
X46042932Y-57188414D01*
X46042932Y-57188414D02*
X45947694Y-57236033D01*
X67041638Y-65287185D02*
X67041638Y-65763375D01*
X67041638Y-65763375D02*
X66041638Y-65763375D01*
X66041638Y-64477661D02*
X66041638Y-64953851D01*
X66041638Y-64953851D02*
X66517828Y-65001470D01*
X66517828Y-65001470D02*
X66470209Y-64953851D01*
X66470209Y-64953851D02*
X66422590Y-64858613D01*
X66422590Y-64858613D02*
X66422590Y-64620518D01*
X66422590Y-64620518D02*
X66470209Y-64525280D01*
X66470209Y-64525280D02*
X66517828Y-64477661D01*
X66517828Y-64477661D02*
X66613066Y-64430042D01*
X66613066Y-64430042D02*
X66851161Y-64430042D01*
X66851161Y-64430042D02*
X66946399Y-64477661D01*
X66946399Y-64477661D02*
X66994019Y-64525280D01*
X66994019Y-64525280D02*
X67041638Y-64620518D01*
X67041638Y-64620518D02*
X67041638Y-64858613D01*
X67041638Y-64858613D02*
X66994019Y-64953851D01*
X66994019Y-64953851D02*
X66946399Y-65001470D01*
X55973633Y-65375612D02*
X56021253Y-65423231D01*
X56021253Y-65423231D02*
X56068872Y-65566088D01*
X56068872Y-65566088D02*
X56068872Y-65661326D01*
X56068872Y-65661326D02*
X56021253Y-65804183D01*
X56021253Y-65804183D02*
X55926014Y-65899421D01*
X55926014Y-65899421D02*
X55830776Y-65947040D01*
X55830776Y-65947040D02*
X55640300Y-65994659D01*
X55640300Y-65994659D02*
X55497443Y-65994659D01*
X55497443Y-65994659D02*
X55306967Y-65947040D01*
X55306967Y-65947040D02*
X55211729Y-65899421D01*
X55211729Y-65899421D02*
X55116491Y-65804183D01*
X55116491Y-65804183D02*
X55068872Y-65661326D01*
X55068872Y-65661326D02*
X55068872Y-65566088D01*
X55068872Y-65566088D02*
X55116491Y-65423231D01*
X55116491Y-65423231D02*
X55164110Y-65375612D01*
X56068872Y-64423231D02*
X56068872Y-64994659D01*
X56068872Y-64708945D02*
X55068872Y-64708945D01*
X55068872Y-64708945D02*
X55211729Y-64804183D01*
X55211729Y-64804183D02*
X55306967Y-64899421D01*
X55306967Y-64899421D02*
X55354586Y-64994659D01*
X63269843Y-65377558D02*
X63317463Y-65425177D01*
X63317463Y-65425177D02*
X63365082Y-65568034D01*
X63365082Y-65568034D02*
X63365082Y-65663272D01*
X63365082Y-65663272D02*
X63317463Y-65806129D01*
X63317463Y-65806129D02*
X63222224Y-65901367D01*
X63222224Y-65901367D02*
X63126986Y-65948986D01*
X63126986Y-65948986D02*
X62936510Y-65996605D01*
X62936510Y-65996605D02*
X62793653Y-65996605D01*
X62793653Y-65996605D02*
X62603177Y-65948986D01*
X62603177Y-65948986D02*
X62507939Y-65901367D01*
X62507939Y-65901367D02*
X62412701Y-65806129D01*
X62412701Y-65806129D02*
X62365082Y-65663272D01*
X62365082Y-65663272D02*
X62365082Y-65568034D01*
X62365082Y-65568034D02*
X62412701Y-65425177D01*
X62412701Y-65425177D02*
X62460320Y-65377558D01*
X62365082Y-65044224D02*
X62365082Y-64425177D01*
X62365082Y-64425177D02*
X62746034Y-64758510D01*
X62746034Y-64758510D02*
X62746034Y-64615653D01*
X62746034Y-64615653D02*
X62793653Y-64520415D01*
X62793653Y-64520415D02*
X62841272Y-64472796D01*
X62841272Y-64472796D02*
X62936510Y-64425177D01*
X62936510Y-64425177D02*
X63174605Y-64425177D01*
X63174605Y-64425177D02*
X63269843Y-64472796D01*
X63269843Y-64472796D02*
X63317463Y-64520415D01*
X63317463Y-64520415D02*
X63365082Y-64615653D01*
X63365082Y-64615653D02*
X63365082Y-64901367D01*
X63365082Y-64901367D02*
X63317463Y-64996605D01*
X63317463Y-64996605D02*
X63269843Y-65044224D01*
X77919165Y-65379504D02*
X77966785Y-65427123D01*
X77966785Y-65427123D02*
X78014404Y-65569980D01*
X78014404Y-65569980D02*
X78014404Y-65665218D01*
X78014404Y-65665218D02*
X77966785Y-65808075D01*
X77966785Y-65808075D02*
X77871546Y-65903313D01*
X77871546Y-65903313D02*
X77776308Y-65950932D01*
X77776308Y-65950932D02*
X77585832Y-65998551D01*
X77585832Y-65998551D02*
X77442975Y-65998551D01*
X77442975Y-65998551D02*
X77252499Y-65950932D01*
X77252499Y-65950932D02*
X77157261Y-65903313D01*
X77157261Y-65903313D02*
X77062023Y-65808075D01*
X77062023Y-65808075D02*
X77014404Y-65665218D01*
X77014404Y-65665218D02*
X77014404Y-65569980D01*
X77014404Y-65569980D02*
X77062023Y-65427123D01*
X77062023Y-65427123D02*
X77109642Y-65379504D01*
X77014404Y-65046170D02*
X77014404Y-64379504D01*
X77014404Y-64379504D02*
X78014404Y-64808075D01*
X75895137Y-54544485D02*
X75418947Y-54544485D01*
X75418947Y-54544485D02*
X75418947Y-53544485D01*
X76657042Y-53544485D02*
X76466566Y-53544485D01*
X76466566Y-53544485D02*
X76371328Y-53592104D01*
X76371328Y-53592104D02*
X76323709Y-53639723D01*
X76323709Y-53639723D02*
X76228471Y-53782580D01*
X76228471Y-53782580D02*
X76180852Y-53973056D01*
X76180852Y-53973056D02*
X76180852Y-54354008D01*
X76180852Y-54354008D02*
X76228471Y-54449246D01*
X76228471Y-54449246D02*
X76276090Y-54496866D01*
X76276090Y-54496866D02*
X76371328Y-54544485D01*
X76371328Y-54544485D02*
X76561804Y-54544485D01*
X76561804Y-54544485D02*
X76657042Y-54496866D01*
X76657042Y-54496866D02*
X76704661Y-54449246D01*
X76704661Y-54449246D02*
X76752280Y-54354008D01*
X76752280Y-54354008D02*
X76752280Y-54115913D01*
X76752280Y-54115913D02*
X76704661Y-54020675D01*
X76704661Y-54020675D02*
X76657042Y-53973056D01*
X76657042Y-53973056D02*
X76561804Y-53925437D01*
X76561804Y-53925437D02*
X76371328Y-53925437D01*
X76371328Y-53925437D02*
X76276090Y-53973056D01*
X76276090Y-53973056D02*
X76228471Y-54020675D01*
X76228471Y-54020675D02*
X76180852Y-54115913D01*
X51169949Y-54449246D02*
X51122330Y-54496866D01*
X51122330Y-54496866D02*
X50979473Y-54544485D01*
X50979473Y-54544485D02*
X50884235Y-54544485D01*
X50884235Y-54544485D02*
X50741378Y-54496866D01*
X50741378Y-54496866D02*
X50646140Y-54401627D01*
X50646140Y-54401627D02*
X50598521Y-54306389D01*
X50598521Y-54306389D02*
X50550902Y-54115913D01*
X50550902Y-54115913D02*
X50550902Y-53973056D01*
X50550902Y-53973056D02*
X50598521Y-53782580D01*
X50598521Y-53782580D02*
X50646140Y-53687342D01*
X50646140Y-53687342D02*
X50741378Y-53592104D01*
X50741378Y-53592104D02*
X50884235Y-53544485D01*
X50884235Y-53544485D02*
X50979473Y-53544485D01*
X50979473Y-53544485D02*
X51122330Y-53592104D01*
X51122330Y-53592104D02*
X51169949Y-53639723D01*
X51550902Y-53639723D02*
X51598521Y-53592104D01*
X51598521Y-53592104D02*
X51693759Y-53544485D01*
X51693759Y-53544485D02*
X51931854Y-53544485D01*
X51931854Y-53544485D02*
X52027092Y-53592104D01*
X52027092Y-53592104D02*
X52074711Y-53639723D01*
X52074711Y-53639723D02*
X52122330Y-53734961D01*
X52122330Y-53734961D02*
X52122330Y-53830199D01*
X52122330Y-53830199D02*
X52074711Y-53973056D01*
X52074711Y-53973056D02*
X51503283Y-54544485D01*
X51503283Y-54544485D02*
X52122330Y-54544485D01*
X81690961Y-65288158D02*
X81690961Y-65764348D01*
X81690961Y-65764348D02*
X80690961Y-65764348D01*
X81690961Y-64907205D02*
X81690961Y-64716729D01*
X81690961Y-64716729D02*
X81643342Y-64621491D01*
X81643342Y-64621491D02*
X81595722Y-64573872D01*
X81595722Y-64573872D02*
X81452865Y-64478634D01*
X81452865Y-64478634D02*
X81262389Y-64431015D01*
X81262389Y-64431015D02*
X80881437Y-64431015D01*
X80881437Y-64431015D02*
X80786199Y-64478634D01*
X80786199Y-64478634D02*
X80738580Y-64526253D01*
X80738580Y-64526253D02*
X80690961Y-64621491D01*
X80690961Y-64621491D02*
X80690961Y-64811967D01*
X80690961Y-64811967D02*
X80738580Y-64907205D01*
X80738580Y-64907205D02*
X80786199Y-64954824D01*
X80786199Y-64954824D02*
X80881437Y-65002443D01*
X80881437Y-65002443D02*
X81119532Y-65002443D01*
X81119532Y-65002443D02*
X81214770Y-64954824D01*
X81214770Y-64954824D02*
X81262389Y-64907205D01*
X81262389Y-64907205D02*
X81310008Y-64811967D01*
X81310008Y-64811967D02*
X81310008Y-64621491D01*
X81310008Y-64621491D02*
X81262389Y-64526253D01*
X81262389Y-64526253D02*
X81214770Y-64478634D01*
X81214770Y-64478634D02*
X81119532Y-64431015D01*
X70679859Y-65376585D02*
X70727479Y-65424204D01*
X70727479Y-65424204D02*
X70775098Y-65567061D01*
X70775098Y-65567061D02*
X70775098Y-65662299D01*
X70775098Y-65662299D02*
X70727479Y-65805156D01*
X70727479Y-65805156D02*
X70632240Y-65900394D01*
X70632240Y-65900394D02*
X70537002Y-65948013D01*
X70537002Y-65948013D02*
X70346526Y-65995632D01*
X70346526Y-65995632D02*
X70203669Y-65995632D01*
X70203669Y-65995632D02*
X70013193Y-65948013D01*
X70013193Y-65948013D02*
X69917955Y-65900394D01*
X69917955Y-65900394D02*
X69822717Y-65805156D01*
X69822717Y-65805156D02*
X69775098Y-65662299D01*
X69775098Y-65662299D02*
X69775098Y-65567061D01*
X69775098Y-65567061D02*
X69822717Y-65424204D01*
X69822717Y-65424204D02*
X69870336Y-65376585D01*
X69775098Y-64471823D02*
X69775098Y-64948013D01*
X69775098Y-64948013D02*
X70251288Y-64995632D01*
X70251288Y-64995632D02*
X70203669Y-64948013D01*
X70203669Y-64948013D02*
X70156050Y-64852775D01*
X70156050Y-64852775D02*
X70156050Y-64614680D01*
X70156050Y-64614680D02*
X70203669Y-64519442D01*
X70203669Y-64519442D02*
X70251288Y-64471823D01*
X70251288Y-64471823D02*
X70346526Y-64424204D01*
X70346526Y-64424204D02*
X70584621Y-64424204D01*
X70584621Y-64424204D02*
X70679859Y-64471823D01*
X70679859Y-64471823D02*
X70727479Y-64519442D01*
X70727479Y-64519442D02*
X70775098Y-64614680D01*
X70775098Y-64614680D02*
X70775098Y-64852775D01*
X70775098Y-64852775D02*
X70727479Y-64948013D01*
X70727479Y-64948013D02*
X70679859Y-64995632D01*
X85272280Y-65378531D02*
X85319900Y-65426150D01*
X85319900Y-65426150D02*
X85367519Y-65569007D01*
X85367519Y-65569007D02*
X85367519Y-65664245D01*
X85367519Y-65664245D02*
X85319900Y-65807102D01*
X85319900Y-65807102D02*
X85224661Y-65902340D01*
X85224661Y-65902340D02*
X85129423Y-65949959D01*
X85129423Y-65949959D02*
X84938947Y-65997578D01*
X84938947Y-65997578D02*
X84796090Y-65997578D01*
X84796090Y-65997578D02*
X84605614Y-65949959D01*
X84605614Y-65949959D02*
X84510376Y-65902340D01*
X84510376Y-65902340D02*
X84415138Y-65807102D01*
X84415138Y-65807102D02*
X84367519Y-65664245D01*
X84367519Y-65664245D02*
X84367519Y-65569007D01*
X84367519Y-65569007D02*
X84415138Y-65426150D01*
X84415138Y-65426150D02*
X84462757Y-65378531D01*
X85367519Y-64902340D02*
X85367519Y-64711864D01*
X85367519Y-64711864D02*
X85319900Y-64616626D01*
X85319900Y-64616626D02*
X85272280Y-64569007D01*
X85272280Y-64569007D02*
X85129423Y-64473769D01*
X85129423Y-64473769D02*
X84938947Y-64426150D01*
X84938947Y-64426150D02*
X84557995Y-64426150D01*
X84557995Y-64426150D02*
X84462757Y-64473769D01*
X84462757Y-64473769D02*
X84415138Y-64521388D01*
X84415138Y-64521388D02*
X84367519Y-64616626D01*
X84367519Y-64616626D02*
X84367519Y-64807102D01*
X84367519Y-64807102D02*
X84415138Y-64902340D01*
X84415138Y-64902340D02*
X84462757Y-64949959D01*
X84462757Y-64949959D02*
X84557995Y-64997578D01*
X84557995Y-64997578D02*
X84796090Y-64997578D01*
X84796090Y-64997578D02*
X84891328Y-64949959D01*
X84891328Y-64949959D02*
X84938947Y-64902340D01*
X84938947Y-64902340D02*
X84986566Y-64807102D01*
X84986566Y-64807102D02*
X84986566Y-64616626D01*
X84986566Y-64616626D02*
X84938947Y-64521388D01*
X84938947Y-64521388D02*
X84891328Y-64473769D01*
X84891328Y-64473769D02*
X84796090Y-64426150D01*
X52221606Y-65286212D02*
X52221606Y-65762402D01*
X52221606Y-65762402D02*
X51221606Y-65762402D01*
X52221606Y-64429069D02*
X52221606Y-65000497D01*
X52221606Y-64714783D02*
X51221606Y-64714783D01*
X51221606Y-64714783D02*
X51364463Y-64810021D01*
X51364463Y-64810021D02*
X51459701Y-64905259D01*
X51459701Y-64905259D02*
X51507320Y-65000497D01*
X59688526Y-65279401D02*
X59688526Y-65755591D01*
X59688526Y-65755591D02*
X58688526Y-65755591D01*
X58688526Y-65041305D02*
X58688526Y-64422258D01*
X58688526Y-64422258D02*
X59069478Y-64755591D01*
X59069478Y-64755591D02*
X59069478Y-64612734D01*
X59069478Y-64612734D02*
X59117097Y-64517496D01*
X59117097Y-64517496D02*
X59164716Y-64469877D01*
X59164716Y-64469877D02*
X59259954Y-64422258D01*
X59259954Y-64422258D02*
X59498049Y-64422258D01*
X59498049Y-64422258D02*
X59593287Y-64469877D01*
X59593287Y-64469877D02*
X59640907Y-64517496D01*
X59640907Y-64517496D02*
X59688526Y-64612734D01*
X59688526Y-64612734D02*
X59688526Y-64898448D01*
X59688526Y-64898448D02*
X59640907Y-64993686D01*
X59640907Y-64993686D02*
X59593287Y-65041305D01*
X55979030Y-54544485D02*
X55502840Y-54544485D01*
X55502840Y-54544485D02*
X55502840Y-53544485D01*
X56264745Y-53639723D02*
X56312364Y-53592104D01*
X56312364Y-53592104D02*
X56407602Y-53544485D01*
X56407602Y-53544485D02*
X56645697Y-53544485D01*
X56645697Y-53544485D02*
X56740935Y-53592104D01*
X56740935Y-53592104D02*
X56788554Y-53639723D01*
X56788554Y-53639723D02*
X56836173Y-53734961D01*
X56836173Y-53734961D02*
X56836173Y-53830199D01*
X56836173Y-53830199D02*
X56788554Y-53973056D01*
X56788554Y-53973056D02*
X56217126Y-54544485D01*
X56217126Y-54544485D02*
X56836173Y-54544485D01*
D11*
X37641667Y-52393625D02*
X37641667Y-53300768D01*
X37641667Y-53300768D02*
X37581190Y-53482196D01*
X37581190Y-53482196D02*
X37460238Y-53603149D01*
X37460238Y-53603149D02*
X37278809Y-53663625D01*
X37278809Y-53663625D02*
X37157857Y-53663625D01*
X38125476Y-52393625D02*
X38911667Y-52393625D01*
X38911667Y-52393625D02*
X38488333Y-52877434D01*
X38488333Y-52877434D02*
X38669762Y-52877434D01*
X38669762Y-52877434D02*
X38790714Y-52937910D01*
X38790714Y-52937910D02*
X38851190Y-52998387D01*
X38851190Y-52998387D02*
X38911667Y-53119339D01*
X38911667Y-53119339D02*
X38911667Y-53421720D01*
X38911667Y-53421720D02*
X38851190Y-53542672D01*
X38851190Y-53542672D02*
X38790714Y-53603149D01*
X38790714Y-53603149D02*
X38669762Y-53663625D01*
X38669762Y-53663625D02*
X38306905Y-53663625D01*
X38306905Y-53663625D02*
X38185952Y-53603149D01*
X38185952Y-53603149D02*
X38125476Y-53542672D01*
D10*
X65870004Y-54544485D02*
X65393814Y-54544485D01*
X65393814Y-54544485D02*
X65393814Y-53544485D01*
X66631909Y-53877818D02*
X66631909Y-54544485D01*
X66393814Y-53496866D02*
X66155719Y-54211151D01*
X66155719Y-54211151D02*
X66774766Y-54211151D01*
D11*
X98636667Y-52905755D02*
X98636667Y-53812898D01*
X98636667Y-53812898D02*
X98576190Y-53994326D01*
X98576190Y-53994326D02*
X98455238Y-54115279D01*
X98455238Y-54115279D02*
X98273809Y-54175755D01*
X98273809Y-54175755D02*
X98152857Y-54175755D01*
X99906667Y-54175755D02*
X99180952Y-54175755D01*
X99543809Y-54175755D02*
X99543809Y-52905755D01*
X99543809Y-52905755D02*
X99422857Y-53087183D01*
X99422857Y-53087183D02*
X99301905Y-53208136D01*
X99301905Y-53208136D02*
X99180952Y-53268612D01*
D10*
X70992849Y-54449246D02*
X70945230Y-54496866D01*
X70945230Y-54496866D02*
X70802373Y-54544485D01*
X70802373Y-54544485D02*
X70707135Y-54544485D01*
X70707135Y-54544485D02*
X70564278Y-54496866D01*
X70564278Y-54496866D02*
X70469040Y-54401627D01*
X70469040Y-54401627D02*
X70421421Y-54306389D01*
X70421421Y-54306389D02*
X70373802Y-54115913D01*
X70373802Y-54115913D02*
X70373802Y-53973056D01*
X70373802Y-53973056D02*
X70421421Y-53782580D01*
X70421421Y-53782580D02*
X70469040Y-53687342D01*
X70469040Y-53687342D02*
X70564278Y-53592104D01*
X70564278Y-53592104D02*
X70707135Y-53544485D01*
X70707135Y-53544485D02*
X70802373Y-53544485D01*
X70802373Y-53544485D02*
X70945230Y-53592104D01*
X70945230Y-53592104D02*
X70992849Y-53639723D01*
X71849992Y-53544485D02*
X71659516Y-53544485D01*
X71659516Y-53544485D02*
X71564278Y-53592104D01*
X71564278Y-53592104D02*
X71516659Y-53639723D01*
X71516659Y-53639723D02*
X71421421Y-53782580D01*
X71421421Y-53782580D02*
X71373802Y-53973056D01*
X71373802Y-53973056D02*
X71373802Y-54354008D01*
X71373802Y-54354008D02*
X71421421Y-54449246D01*
X71421421Y-54449246D02*
X71469040Y-54496866D01*
X71469040Y-54496866D02*
X71564278Y-54544485D01*
X71564278Y-54544485D02*
X71754754Y-54544485D01*
X71754754Y-54544485D02*
X71849992Y-54496866D01*
X71849992Y-54496866D02*
X71897611Y-54449246D01*
X71897611Y-54449246D02*
X71945230Y-54354008D01*
X71945230Y-54354008D02*
X71945230Y-54115913D01*
X71945230Y-54115913D02*
X71897611Y-54020675D01*
X71897611Y-54020675D02*
X71849992Y-53973056D01*
X71849992Y-53973056D02*
X71754754Y-53925437D01*
X71754754Y-53925437D02*
X71564278Y-53925437D01*
X71564278Y-53925437D02*
X71469040Y-53973056D01*
X71469040Y-53973056D02*
X71421421Y-54020675D01*
X71421421Y-54020675D02*
X71373802Y-54115913D01*
X60895711Y-54449246D02*
X60848092Y-54496866D01*
X60848092Y-54496866D02*
X60705235Y-54544485D01*
X60705235Y-54544485D02*
X60609997Y-54544485D01*
X60609997Y-54544485D02*
X60467140Y-54496866D01*
X60467140Y-54496866D02*
X60371902Y-54401627D01*
X60371902Y-54401627D02*
X60324283Y-54306389D01*
X60324283Y-54306389D02*
X60276664Y-54115913D01*
X60276664Y-54115913D02*
X60276664Y-53973056D01*
X60276664Y-53973056D02*
X60324283Y-53782580D01*
X60324283Y-53782580D02*
X60371902Y-53687342D01*
X60371902Y-53687342D02*
X60467140Y-53592104D01*
X60467140Y-53592104D02*
X60609997Y-53544485D01*
X60609997Y-53544485D02*
X60705235Y-53544485D01*
X60705235Y-53544485D02*
X60848092Y-53592104D01*
X60848092Y-53592104D02*
X60895711Y-53639723D01*
X61752854Y-53877818D02*
X61752854Y-54544485D01*
X61514759Y-53496866D02*
X61276664Y-54211151D01*
X61276664Y-54211151D02*
X61895711Y-54211151D01*
X91464776Y-58576256D02*
X91131443Y-58100065D01*
X90893348Y-58576256D02*
X90893348Y-57576256D01*
X90893348Y-57576256D02*
X91274300Y-57576256D01*
X91274300Y-57576256D02*
X91369538Y-57623875D01*
X91369538Y-57623875D02*
X91417157Y-57671494D01*
X91417157Y-57671494D02*
X91464776Y-57766732D01*
X91464776Y-57766732D02*
X91464776Y-57909589D01*
X91464776Y-57909589D02*
X91417157Y-58004827D01*
X91417157Y-58004827D02*
X91369538Y-58052446D01*
X91369538Y-58052446D02*
X91274300Y-58100065D01*
X91274300Y-58100065D02*
X90893348Y-58100065D01*
X91845729Y-57671494D02*
X91893348Y-57623875D01*
X91893348Y-57623875D02*
X91988586Y-57576256D01*
X91988586Y-57576256D02*
X92226681Y-57576256D01*
X92226681Y-57576256D02*
X92321919Y-57623875D01*
X92321919Y-57623875D02*
X92369538Y-57671494D01*
X92369538Y-57671494D02*
X92417157Y-57766732D01*
X92417157Y-57766732D02*
X92417157Y-57861970D01*
X92417157Y-57861970D02*
X92369538Y-58004827D01*
X92369538Y-58004827D02*
X91798110Y-58576256D01*
X91798110Y-58576256D02*
X92417157Y-58576256D01*
D12*
%TO.C,L7*%
X74895565Y-60730234D02*
X74895565Y-62400718D01*
X73075565Y-60730234D02*
X73075565Y-62400718D01*
%TO.C,R1*%
X45006344Y-58405500D02*
X46460472Y-58405500D01*
X45006344Y-60225500D02*
X46460472Y-60225500D01*
%TO.C,L5*%
X67550721Y-60730234D02*
X67550721Y-62400718D01*
X65730721Y-60730234D02*
X65730721Y-62400718D01*
%TO.C,C8*%
X80394526Y-55139029D02*
X81817030Y-55139029D01*
X80394526Y-56959029D02*
X81817030Y-56959029D01*
%TO.C,C1*%
X56533455Y-60854224D02*
X56533455Y-62276728D01*
X54713455Y-60854224D02*
X54713455Y-62276728D01*
%TO.C,C3*%
X63878299Y-60854224D02*
X63878299Y-62276728D01*
X62058299Y-60854224D02*
X62058299Y-62276728D01*
%TO.C,C7*%
X78567987Y-60854224D02*
X78567987Y-62276728D01*
X76747987Y-60854224D02*
X76747987Y-62276728D01*
%TO.C,L6*%
X75299108Y-55139029D02*
X76969592Y-55139029D01*
X75299108Y-56959029D02*
X76969592Y-56959029D01*
%TO.C,C2*%
X50565958Y-55080889D02*
X51988462Y-55080889D01*
X50565958Y-56900889D02*
X51988462Y-56900889D01*
%TO.C,L9*%
X82240409Y-60730234D02*
X82240409Y-62400718D01*
X80420409Y-60730234D02*
X80420409Y-62400718D01*
%TO.C,C5*%
X71223143Y-60854224D02*
X71223143Y-62276728D01*
X69403143Y-60854224D02*
X69403143Y-62276728D01*
%TO.C,C9*%
X85912832Y-60854224D02*
X85912832Y-62276728D01*
X84092832Y-60854224D02*
X84092832Y-62276728D01*
%TO.C,L1*%
X52861033Y-60730234D02*
X52861033Y-62400718D01*
X51041033Y-60730234D02*
X51041033Y-62400718D01*
%TO.C,L3*%
X60205877Y-60730234D02*
X60205877Y-62400718D01*
X58385877Y-60730234D02*
X58385877Y-62400718D01*
%TO.C,L2*%
X55413396Y-55139029D02*
X57083880Y-55139029D01*
X55413396Y-56959029D02*
X57083880Y-56959029D01*
D13*
%TO.C,J3*%
X34565000Y-58229307D02*
X34565000Y-60629307D01*
X36865000Y-55929307D02*
X39265000Y-55929307D01*
X36865000Y-62929307D02*
X39265000Y-62929307D01*
X41565000Y-60629307D02*
X41565000Y-58229307D01*
D12*
%TO.C,L4*%
X65356252Y-55139029D02*
X67026736Y-55139029D01*
X65356252Y-56959029D02*
X67026736Y-56959029D01*
D13*
%TO.C,J1*%
X95560000Y-58741437D02*
X95560000Y-61141437D01*
X97860000Y-56441437D02*
X100260000Y-56441437D01*
X97860000Y-63441437D02*
X100260000Y-63441437D01*
X102560000Y-61141437D02*
X102560000Y-58741437D01*
D12*
%TO.C,C6*%
X70451670Y-55139029D02*
X71874174Y-55139029D01*
X70451670Y-56959029D02*
X71874174Y-56959029D01*
%TO.C,C4*%
X60508814Y-55072058D02*
X61931318Y-55072058D01*
X60508814Y-56892058D02*
X61931318Y-56892058D01*
%TO.C,R2*%
X90904379Y-59031437D02*
X92358507Y-59031437D01*
X90904379Y-60851437D02*
X92358507Y-60851437D01*
%TO.C,L8*%
X85241968Y-55139029D02*
X86912452Y-55139029D01*
X85241968Y-56959029D02*
X86912452Y-56959029D01*
%TD*%
M02*
