%TF.GenerationSoftware,KiCad,Pcbnew,7.0.8-7.0.8~ubuntu22.04.1*%
%TF.CreationDate,2023-10-03T21:39:13-05:00*%
%TF.ProjectId,bandpass_filter,62616e64-7061-4737-935f-66696c746572,rev?*%
%TF.SameCoordinates,Original*%
%TF.FileFunction,Drillmap*%
%TF.FilePolarity,Positive*%
%FSLAX45Y45*%
G04 Gerber Fmt 4.5, Leading zero omitted, Abs format (unit mm)*
G04 Created by KiCad (PCBNEW 7.0.8-7.0.8~ubuntu22.04.1) date 2023-10-03 21:39:13*
%MOMM*%
%LPD*%
G01*
G04 APERTURE LIST*
%ADD10C,0.100000*%
%ADD11C,0.200000*%
G04 APERTURE END LIST*
D10*
X2540000Y-4572000D02*
X11303000Y-4572000D01*
X2286000Y-5080000D02*
X2286000Y-4826000D01*
X11176000Y-6604000D02*
G75*
G03*
X11176000Y-6604000I-254000J0D01*
G01*
X11303000Y-7112000D02*
X2540000Y-7112000D01*
X2286000Y-6858000D02*
G75*
G03*
X2540000Y-7112000I254000J0D01*
G01*
X11684000Y-4826000D02*
G75*
G03*
X11684000Y-4826000I0J0D01*
G01*
X2540000Y-4572000D02*
G75*
G03*
X2286000Y-4826000I0J-254000D01*
G01*
X3048000Y-5080000D02*
G75*
G03*
X3048000Y-5080000I-254000J0D01*
G01*
X11557000Y-4826000D02*
X11557000Y-6858000D01*
X11303000Y-7112000D02*
G75*
G03*
X11557000Y-6858000I0J254000D01*
G01*
X2286000Y-6858000D02*
X2286000Y-5080000D01*
X3048000Y-6604000D02*
G75*
G03*
X3048000Y-6604000I-254000J0D01*
G01*
X11557000Y-4826000D02*
G75*
G03*
X11303000Y-4572000I-254000J0D01*
G01*
X11176000Y-5080000D02*
G75*
G03*
X11176000Y-5080000I-254000J0D01*
G01*
D11*
X2541777Y-7428484D02*
X2541777Y-7228484D01*
X2541777Y-7228484D02*
X2589396Y-7228484D01*
X2589396Y-7228484D02*
X2617967Y-7238008D01*
X2617967Y-7238008D02*
X2637015Y-7257055D01*
X2637015Y-7257055D02*
X2646539Y-7276103D01*
X2646539Y-7276103D02*
X2656063Y-7314198D01*
X2656063Y-7314198D02*
X2656063Y-7342769D01*
X2656063Y-7342769D02*
X2646539Y-7380865D01*
X2646539Y-7380865D02*
X2637015Y-7399912D01*
X2637015Y-7399912D02*
X2617967Y-7418960D01*
X2617967Y-7418960D02*
X2589396Y-7428484D01*
X2589396Y-7428484D02*
X2541777Y-7428484D01*
X2741777Y-7428484D02*
X2741777Y-7295150D01*
X2741777Y-7333246D02*
X2751301Y-7314198D01*
X2751301Y-7314198D02*
X2760824Y-7304674D01*
X2760824Y-7304674D02*
X2779872Y-7295150D01*
X2779872Y-7295150D02*
X2798920Y-7295150D01*
X2865586Y-7428484D02*
X2865586Y-7295150D01*
X2865586Y-7228484D02*
X2856062Y-7238008D01*
X2856062Y-7238008D02*
X2865586Y-7247531D01*
X2865586Y-7247531D02*
X2875110Y-7238008D01*
X2875110Y-7238008D02*
X2865586Y-7228484D01*
X2865586Y-7228484D02*
X2865586Y-7247531D01*
X2989396Y-7428484D02*
X2970348Y-7418960D01*
X2970348Y-7418960D02*
X2960824Y-7399912D01*
X2960824Y-7399912D02*
X2960824Y-7228484D01*
X3094158Y-7428484D02*
X3075110Y-7418960D01*
X3075110Y-7418960D02*
X3065586Y-7399912D01*
X3065586Y-7399912D02*
X3065586Y-7228484D01*
X3322729Y-7428484D02*
X3322729Y-7228484D01*
X3322729Y-7228484D02*
X3389396Y-7371341D01*
X3389396Y-7371341D02*
X3456062Y-7228484D01*
X3456062Y-7228484D02*
X3456062Y-7428484D01*
X3637015Y-7428484D02*
X3637015Y-7323722D01*
X3637015Y-7323722D02*
X3627491Y-7304674D01*
X3627491Y-7304674D02*
X3608443Y-7295150D01*
X3608443Y-7295150D02*
X3570348Y-7295150D01*
X3570348Y-7295150D02*
X3551301Y-7304674D01*
X3637015Y-7418960D02*
X3617967Y-7428484D01*
X3617967Y-7428484D02*
X3570348Y-7428484D01*
X3570348Y-7428484D02*
X3551301Y-7418960D01*
X3551301Y-7418960D02*
X3541777Y-7399912D01*
X3541777Y-7399912D02*
X3541777Y-7380865D01*
X3541777Y-7380865D02*
X3551301Y-7361817D01*
X3551301Y-7361817D02*
X3570348Y-7352293D01*
X3570348Y-7352293D02*
X3617967Y-7352293D01*
X3617967Y-7352293D02*
X3637015Y-7342769D01*
X3732253Y-7295150D02*
X3732253Y-7495150D01*
X3732253Y-7304674D02*
X3751301Y-7295150D01*
X3751301Y-7295150D02*
X3789396Y-7295150D01*
X3789396Y-7295150D02*
X3808443Y-7304674D01*
X3808443Y-7304674D02*
X3817967Y-7314198D01*
X3817967Y-7314198D02*
X3827491Y-7333246D01*
X3827491Y-7333246D02*
X3827491Y-7390388D01*
X3827491Y-7390388D02*
X3817967Y-7409436D01*
X3817967Y-7409436D02*
X3808443Y-7418960D01*
X3808443Y-7418960D02*
X3789396Y-7428484D01*
X3789396Y-7428484D02*
X3751301Y-7428484D01*
X3751301Y-7428484D02*
X3732253Y-7418960D01*
X3913205Y-7409436D02*
X3922729Y-7418960D01*
X3922729Y-7418960D02*
X3913205Y-7428484D01*
X3913205Y-7428484D02*
X3903682Y-7418960D01*
X3903682Y-7418960D02*
X3913205Y-7409436D01*
X3913205Y-7409436D02*
X3913205Y-7428484D01*
X3913205Y-7304674D02*
X3922729Y-7314198D01*
X3922729Y-7314198D02*
X3913205Y-7323722D01*
X3913205Y-7323722D02*
X3903682Y-7314198D01*
X3903682Y-7314198D02*
X3913205Y-7304674D01*
X3913205Y-7304674D02*
X3913205Y-7323722D01*
M02*
