%TF.GenerationSoftware,KiCad,Pcbnew,7.0.8-7.0.8~ubuntu22.04.1*%
%TF.CreationDate,2023-10-03T21:39:13-05:00*%
%TF.ProjectId,bandpass_filter,62616e64-7061-4737-935f-66696c746572,rev?*%
%TF.SameCoordinates,Original*%
%TF.FileFunction,Drillmap*%
%TF.FilePolarity,Positive*%
%FSLAX45Y45*%
G04 Gerber Fmt 4.5, Leading zero omitted, Abs format (unit mm)*
G04 Created by KiCad (PCBNEW 7.0.8-7.0.8~ubuntu22.04.1) date 2023-10-03 21:39:13*
%MOMM*%
%LPD*%
G01*
G04 APERTURE LIST*
%ADD10C,0.100000*%
%ADD11C,0.200000*%
%ADD12C,0.040000*%
%ADD13C,0.160000*%
%ADD14C,0.190000*%
G04 APERTURE END LIST*
D10*
X2540000Y-4572000D02*
X11303000Y-4572000D01*
X2286000Y-5080000D02*
X2286000Y-4826000D01*
X11176000Y-6604000D02*
G75*
G03*
X11176000Y-6604000I-254000J0D01*
G01*
X11303000Y-7112000D02*
X2540000Y-7112000D01*
X2286000Y-6858000D02*
G75*
G03*
X2540000Y-7112000I254000J0D01*
G01*
X11684000Y-4826000D02*
G75*
G03*
X11684000Y-4826000I0J0D01*
G01*
X2540000Y-4572000D02*
G75*
G03*
X2286000Y-4826000I0J-254000D01*
G01*
X3048000Y-5080000D02*
G75*
G03*
X3048000Y-5080000I-254000J0D01*
G01*
X11557000Y-4826000D02*
X11557000Y-6858000D01*
X11303000Y-7112000D02*
G75*
G03*
X11557000Y-6858000I0J254000D01*
G01*
X2286000Y-6858000D02*
X2286000Y-5080000D01*
X3048000Y-6604000D02*
G75*
G03*
X3048000Y-6604000I-254000J0D01*
G01*
X11557000Y-4826000D02*
G75*
G03*
X11303000Y-4572000I-254000J0D01*
G01*
X11176000Y-5080000D02*
G75*
G03*
X11176000Y-5080000I-254000J0D01*
G01*
D11*
D12*
X4933000Y-6457000D02*
X4973000Y-6497000D01*
X4973000Y-6457000D02*
X4933000Y-6497000D01*
X5314000Y-6457000D02*
X5354000Y-6497000D01*
X5354000Y-6457000D02*
X5314000Y-6497000D01*
X5695000Y-6457000D02*
X5735000Y-6497000D01*
X5735000Y-6457000D02*
X5695000Y-6497000D01*
X6076000Y-6457000D02*
X6116000Y-6497000D01*
X6116000Y-6457000D02*
X6076000Y-6497000D01*
X6457000Y-6457000D02*
X6497000Y-6497000D01*
X6497000Y-6457000D02*
X6457000Y-6497000D01*
X6838000Y-6457000D02*
X6878000Y-6497000D01*
X6878000Y-6457000D02*
X6838000Y-6497000D01*
X7219000Y-6457000D02*
X7259000Y-6497000D01*
X7259000Y-6457000D02*
X7219000Y-6497000D01*
X7600000Y-6457000D02*
X7640000Y-6497000D01*
X7640000Y-6457000D02*
X7600000Y-6497000D01*
X7981000Y-6457000D02*
X8021000Y-6497000D01*
X8021000Y-6457000D02*
X7981000Y-6497000D01*
X8362000Y-6457000D02*
X8402000Y-6497000D01*
X8402000Y-6457000D02*
X8362000Y-6497000D01*
D13*
X3886500Y-5942931D02*
G75*
G03*
X3886500Y-5942931I-80000J0D01*
G01*
X9986000Y-5994144D02*
G75*
G03*
X9986000Y-5994144I-80000J0D01*
G01*
D14*
X3549000Y-5590431D02*
X3549000Y-5780431D01*
X3454000Y-5685431D02*
X3644000Y-5685431D01*
X3549000Y-6105431D02*
X3549000Y-6295431D01*
X3454000Y-6200431D02*
X3644000Y-6200431D01*
X4064000Y-5590431D02*
X4064000Y-5780431D01*
X3969000Y-5685431D02*
X4159000Y-5685431D01*
X4064000Y-6105431D02*
X4064000Y-6295431D01*
X3969000Y-6200431D02*
X4159000Y-6200431D01*
X9648500Y-5641644D02*
X9648500Y-5831644D01*
X9553500Y-5736644D02*
X9743500Y-5736644D01*
X9648500Y-6156644D02*
X9648500Y-6346644D01*
X9553500Y-6251644D02*
X9743500Y-6251644D01*
X10163500Y-5641644D02*
X10163500Y-5831644D01*
X10068500Y-5736644D02*
X10258500Y-5736644D01*
X10163500Y-6156644D02*
X10163500Y-6346644D01*
X10068500Y-6251644D02*
X10258500Y-6251644D01*
D11*
X2541777Y-7428484D02*
X2541777Y-7228484D01*
X2541777Y-7228484D02*
X2589396Y-7228484D01*
X2589396Y-7228484D02*
X2617967Y-7238008D01*
X2617967Y-7238008D02*
X2637015Y-7257055D01*
X2637015Y-7257055D02*
X2646539Y-7276103D01*
X2646539Y-7276103D02*
X2656063Y-7314198D01*
X2656063Y-7314198D02*
X2656063Y-7342769D01*
X2656063Y-7342769D02*
X2646539Y-7380865D01*
X2646539Y-7380865D02*
X2637015Y-7399912D01*
X2637015Y-7399912D02*
X2617967Y-7418960D01*
X2617967Y-7418960D02*
X2589396Y-7428484D01*
X2589396Y-7428484D02*
X2541777Y-7428484D01*
X2741777Y-7428484D02*
X2741777Y-7295150D01*
X2741777Y-7333246D02*
X2751301Y-7314198D01*
X2751301Y-7314198D02*
X2760824Y-7304674D01*
X2760824Y-7304674D02*
X2779872Y-7295150D01*
X2779872Y-7295150D02*
X2798920Y-7295150D01*
X2865586Y-7428484D02*
X2865586Y-7295150D01*
X2865586Y-7228484D02*
X2856062Y-7238008D01*
X2856062Y-7238008D02*
X2865586Y-7247531D01*
X2865586Y-7247531D02*
X2875110Y-7238008D01*
X2875110Y-7238008D02*
X2865586Y-7228484D01*
X2865586Y-7228484D02*
X2865586Y-7247531D01*
X2989396Y-7428484D02*
X2970348Y-7418960D01*
X2970348Y-7418960D02*
X2960824Y-7399912D01*
X2960824Y-7399912D02*
X2960824Y-7228484D01*
X3094158Y-7428484D02*
X3075110Y-7418960D01*
X3075110Y-7418960D02*
X3065586Y-7399912D01*
X3065586Y-7399912D02*
X3065586Y-7228484D01*
X3322729Y-7428484D02*
X3322729Y-7228484D01*
X3322729Y-7228484D02*
X3389396Y-7371341D01*
X3389396Y-7371341D02*
X3456062Y-7228484D01*
X3456062Y-7228484D02*
X3456062Y-7428484D01*
X3637015Y-7428484D02*
X3637015Y-7323722D01*
X3637015Y-7323722D02*
X3627491Y-7304674D01*
X3627491Y-7304674D02*
X3608443Y-7295150D01*
X3608443Y-7295150D02*
X3570348Y-7295150D01*
X3570348Y-7295150D02*
X3551301Y-7304674D01*
X3637015Y-7418960D02*
X3617967Y-7428484D01*
X3617967Y-7428484D02*
X3570348Y-7428484D01*
X3570348Y-7428484D02*
X3551301Y-7418960D01*
X3551301Y-7418960D02*
X3541777Y-7399912D01*
X3541777Y-7399912D02*
X3541777Y-7380865D01*
X3541777Y-7380865D02*
X3551301Y-7361817D01*
X3551301Y-7361817D02*
X3570348Y-7352293D01*
X3570348Y-7352293D02*
X3617967Y-7352293D01*
X3617967Y-7352293D02*
X3637015Y-7342769D01*
X3732253Y-7295150D02*
X3732253Y-7495150D01*
X3732253Y-7304674D02*
X3751301Y-7295150D01*
X3751301Y-7295150D02*
X3789396Y-7295150D01*
X3789396Y-7295150D02*
X3808443Y-7304674D01*
X3808443Y-7304674D02*
X3817967Y-7314198D01*
X3817967Y-7314198D02*
X3827491Y-7333246D01*
X3827491Y-7333246D02*
X3827491Y-7390388D01*
X3827491Y-7390388D02*
X3817967Y-7409436D01*
X3817967Y-7409436D02*
X3808443Y-7418960D01*
X3808443Y-7418960D02*
X3789396Y-7428484D01*
X3789396Y-7428484D02*
X3751301Y-7428484D01*
X3751301Y-7428484D02*
X3732253Y-7418960D01*
X3913205Y-7409436D02*
X3922729Y-7418960D01*
X3922729Y-7418960D02*
X3913205Y-7428484D01*
X3913205Y-7428484D02*
X3903682Y-7418960D01*
X3903682Y-7418960D02*
X3913205Y-7409436D01*
X3913205Y-7409436D02*
X3913205Y-7428484D01*
X3913205Y-7304674D02*
X3922729Y-7314198D01*
X3922729Y-7314198D02*
X3913205Y-7323722D01*
X3913205Y-7323722D02*
X3903682Y-7314198D01*
X3903682Y-7314198D02*
X3913205Y-7304674D01*
X3913205Y-7304674D02*
X3913205Y-7323722D01*
D12*
X2241000Y-7737000D02*
X2281000Y-7777000D01*
X2281000Y-7737000D02*
X2241000Y-7777000D01*
D11*
X2579872Y-7648484D02*
X2598920Y-7648484D01*
X2598920Y-7648484D02*
X2617967Y-7658008D01*
X2617967Y-7658008D02*
X2627491Y-7667531D01*
X2627491Y-7667531D02*
X2637015Y-7686579D01*
X2637015Y-7686579D02*
X2646539Y-7724674D01*
X2646539Y-7724674D02*
X2646539Y-7772293D01*
X2646539Y-7772293D02*
X2637015Y-7810388D01*
X2637015Y-7810388D02*
X2627491Y-7829436D01*
X2627491Y-7829436D02*
X2617967Y-7838960D01*
X2617967Y-7838960D02*
X2598920Y-7848484D01*
X2598920Y-7848484D02*
X2579872Y-7848484D01*
X2579872Y-7848484D02*
X2560824Y-7838960D01*
X2560824Y-7838960D02*
X2551301Y-7829436D01*
X2551301Y-7829436D02*
X2541777Y-7810388D01*
X2541777Y-7810388D02*
X2532253Y-7772293D01*
X2532253Y-7772293D02*
X2532253Y-7724674D01*
X2532253Y-7724674D02*
X2541777Y-7686579D01*
X2541777Y-7686579D02*
X2551301Y-7667531D01*
X2551301Y-7667531D02*
X2560824Y-7658008D01*
X2560824Y-7658008D02*
X2579872Y-7648484D01*
X2732253Y-7829436D02*
X2741777Y-7838960D01*
X2741777Y-7838960D02*
X2732253Y-7848484D01*
X2732253Y-7848484D02*
X2722729Y-7838960D01*
X2722729Y-7838960D02*
X2732253Y-7829436D01*
X2732253Y-7829436D02*
X2732253Y-7848484D01*
X2913205Y-7715150D02*
X2913205Y-7848484D01*
X2865586Y-7638960D02*
X2817967Y-7781817D01*
X2817967Y-7781817D02*
X2941777Y-7781817D01*
X3056062Y-7648484D02*
X3075110Y-7648484D01*
X3075110Y-7648484D02*
X3094158Y-7658008D01*
X3094158Y-7658008D02*
X3103682Y-7667531D01*
X3103682Y-7667531D02*
X3113205Y-7686579D01*
X3113205Y-7686579D02*
X3122729Y-7724674D01*
X3122729Y-7724674D02*
X3122729Y-7772293D01*
X3122729Y-7772293D02*
X3113205Y-7810388D01*
X3113205Y-7810388D02*
X3103682Y-7829436D01*
X3103682Y-7829436D02*
X3094158Y-7838960D01*
X3094158Y-7838960D02*
X3075110Y-7848484D01*
X3075110Y-7848484D02*
X3056062Y-7848484D01*
X3056062Y-7848484D02*
X3037015Y-7838960D01*
X3037015Y-7838960D02*
X3027491Y-7829436D01*
X3027491Y-7829436D02*
X3017967Y-7810388D01*
X3017967Y-7810388D02*
X3008443Y-7772293D01*
X3008443Y-7772293D02*
X3008443Y-7724674D01*
X3008443Y-7724674D02*
X3017967Y-7686579D01*
X3017967Y-7686579D02*
X3027491Y-7667531D01*
X3027491Y-7667531D02*
X3037015Y-7658008D01*
X3037015Y-7658008D02*
X3056062Y-7648484D01*
X3246539Y-7648484D02*
X3265586Y-7648484D01*
X3265586Y-7648484D02*
X3284634Y-7658008D01*
X3284634Y-7658008D02*
X3294158Y-7667531D01*
X3294158Y-7667531D02*
X3303682Y-7686579D01*
X3303682Y-7686579D02*
X3313205Y-7724674D01*
X3313205Y-7724674D02*
X3313205Y-7772293D01*
X3313205Y-7772293D02*
X3303682Y-7810388D01*
X3303682Y-7810388D02*
X3294158Y-7829436D01*
X3294158Y-7829436D02*
X3284634Y-7838960D01*
X3284634Y-7838960D02*
X3265586Y-7848484D01*
X3265586Y-7848484D02*
X3246539Y-7848484D01*
X3246539Y-7848484D02*
X3227491Y-7838960D01*
X3227491Y-7838960D02*
X3217967Y-7829436D01*
X3217967Y-7829436D02*
X3208443Y-7810388D01*
X3208443Y-7810388D02*
X3198920Y-7772293D01*
X3198920Y-7772293D02*
X3198920Y-7724674D01*
X3198920Y-7724674D02*
X3208443Y-7686579D01*
X3208443Y-7686579D02*
X3217967Y-7667531D01*
X3217967Y-7667531D02*
X3227491Y-7658008D01*
X3227491Y-7658008D02*
X3246539Y-7648484D01*
X3398920Y-7848484D02*
X3398920Y-7715150D01*
X3398920Y-7734198D02*
X3408443Y-7724674D01*
X3408443Y-7724674D02*
X3427491Y-7715150D01*
X3427491Y-7715150D02*
X3456063Y-7715150D01*
X3456063Y-7715150D02*
X3475110Y-7724674D01*
X3475110Y-7724674D02*
X3484634Y-7743722D01*
X3484634Y-7743722D02*
X3484634Y-7848484D01*
X3484634Y-7743722D02*
X3494158Y-7724674D01*
X3494158Y-7724674D02*
X3513205Y-7715150D01*
X3513205Y-7715150D02*
X3541777Y-7715150D01*
X3541777Y-7715150D02*
X3560824Y-7724674D01*
X3560824Y-7724674D02*
X3570348Y-7743722D01*
X3570348Y-7743722D02*
X3570348Y-7848484D01*
X3665586Y-7848484D02*
X3665586Y-7715150D01*
X3665586Y-7734198D02*
X3675110Y-7724674D01*
X3675110Y-7724674D02*
X3694158Y-7715150D01*
X3694158Y-7715150D02*
X3722729Y-7715150D01*
X3722729Y-7715150D02*
X3741777Y-7724674D01*
X3741777Y-7724674D02*
X3751301Y-7743722D01*
X3751301Y-7743722D02*
X3751301Y-7848484D01*
X3751301Y-7743722D02*
X3760824Y-7724674D01*
X3760824Y-7724674D02*
X3779872Y-7715150D01*
X3779872Y-7715150D02*
X3808443Y-7715150D01*
X3808443Y-7715150D02*
X3827491Y-7724674D01*
X3827491Y-7724674D02*
X3837015Y-7743722D01*
X3837015Y-7743722D02*
X3837015Y-7848484D01*
X4227491Y-7638960D02*
X4056063Y-7896103D01*
X4484634Y-7648484D02*
X4503682Y-7648484D01*
X4503682Y-7648484D02*
X4522729Y-7658008D01*
X4522729Y-7658008D02*
X4532253Y-7667531D01*
X4532253Y-7667531D02*
X4541777Y-7686579D01*
X4541777Y-7686579D02*
X4551301Y-7724674D01*
X4551301Y-7724674D02*
X4551301Y-7772293D01*
X4551301Y-7772293D02*
X4541777Y-7810388D01*
X4541777Y-7810388D02*
X4532253Y-7829436D01*
X4532253Y-7829436D02*
X4522729Y-7838960D01*
X4522729Y-7838960D02*
X4503682Y-7848484D01*
X4503682Y-7848484D02*
X4484634Y-7848484D01*
X4484634Y-7848484D02*
X4465587Y-7838960D01*
X4465587Y-7838960D02*
X4456063Y-7829436D01*
X4456063Y-7829436D02*
X4446539Y-7810388D01*
X4446539Y-7810388D02*
X4437015Y-7772293D01*
X4437015Y-7772293D02*
X4437015Y-7724674D01*
X4437015Y-7724674D02*
X4446539Y-7686579D01*
X4446539Y-7686579D02*
X4456063Y-7667531D01*
X4456063Y-7667531D02*
X4465587Y-7658008D01*
X4465587Y-7658008D02*
X4484634Y-7648484D01*
X4637015Y-7829436D02*
X4646539Y-7838960D01*
X4646539Y-7838960D02*
X4637015Y-7848484D01*
X4637015Y-7848484D02*
X4627491Y-7838960D01*
X4627491Y-7838960D02*
X4637015Y-7829436D01*
X4637015Y-7829436D02*
X4637015Y-7848484D01*
X4770348Y-7648484D02*
X4789396Y-7648484D01*
X4789396Y-7648484D02*
X4808444Y-7658008D01*
X4808444Y-7658008D02*
X4817968Y-7667531D01*
X4817968Y-7667531D02*
X4827491Y-7686579D01*
X4827491Y-7686579D02*
X4837015Y-7724674D01*
X4837015Y-7724674D02*
X4837015Y-7772293D01*
X4837015Y-7772293D02*
X4827491Y-7810388D01*
X4827491Y-7810388D02*
X4817968Y-7829436D01*
X4817968Y-7829436D02*
X4808444Y-7838960D01*
X4808444Y-7838960D02*
X4789396Y-7848484D01*
X4789396Y-7848484D02*
X4770348Y-7848484D01*
X4770348Y-7848484D02*
X4751301Y-7838960D01*
X4751301Y-7838960D02*
X4741777Y-7829436D01*
X4741777Y-7829436D02*
X4732253Y-7810388D01*
X4732253Y-7810388D02*
X4722729Y-7772293D01*
X4722729Y-7772293D02*
X4722729Y-7724674D01*
X4722729Y-7724674D02*
X4732253Y-7686579D01*
X4732253Y-7686579D02*
X4741777Y-7667531D01*
X4741777Y-7667531D02*
X4751301Y-7658008D01*
X4751301Y-7658008D02*
X4770348Y-7648484D01*
X5027491Y-7848484D02*
X4913206Y-7848484D01*
X4970348Y-7848484D02*
X4970348Y-7648484D01*
X4970348Y-7648484D02*
X4951301Y-7677055D01*
X4951301Y-7677055D02*
X4932253Y-7696103D01*
X4932253Y-7696103D02*
X4913206Y-7705627D01*
X5208444Y-7648484D02*
X5113206Y-7648484D01*
X5113206Y-7648484D02*
X5103682Y-7743722D01*
X5103682Y-7743722D02*
X5113206Y-7734198D01*
X5113206Y-7734198D02*
X5132253Y-7724674D01*
X5132253Y-7724674D02*
X5179872Y-7724674D01*
X5179872Y-7724674D02*
X5198920Y-7734198D01*
X5198920Y-7734198D02*
X5208444Y-7743722D01*
X5208444Y-7743722D02*
X5217968Y-7762769D01*
X5217968Y-7762769D02*
X5217968Y-7810388D01*
X5217968Y-7810388D02*
X5208444Y-7829436D01*
X5208444Y-7829436D02*
X5198920Y-7838960D01*
X5198920Y-7838960D02*
X5179872Y-7848484D01*
X5179872Y-7848484D02*
X5132253Y-7848484D01*
X5132253Y-7848484D02*
X5113206Y-7838960D01*
X5113206Y-7838960D02*
X5103682Y-7829436D01*
X5284634Y-7648484D02*
X5417968Y-7648484D01*
X5417968Y-7648484D02*
X5332253Y-7848484D01*
X5484634Y-7648484D02*
X5484634Y-7686579D01*
X5560825Y-7648484D02*
X5560825Y-7686579D01*
X5856063Y-7924674D02*
X5846539Y-7915150D01*
X5846539Y-7915150D02*
X5827491Y-7886579D01*
X5827491Y-7886579D02*
X5817968Y-7867531D01*
X5817968Y-7867531D02*
X5808444Y-7838960D01*
X5808444Y-7838960D02*
X5798920Y-7791341D01*
X5798920Y-7791341D02*
X5798920Y-7753246D01*
X5798920Y-7753246D02*
X5808444Y-7705627D01*
X5808444Y-7705627D02*
X5817968Y-7677055D01*
X5817968Y-7677055D02*
X5827491Y-7658008D01*
X5827491Y-7658008D02*
X5846539Y-7629436D01*
X5846539Y-7629436D02*
X5856063Y-7619912D01*
X6037015Y-7848484D02*
X5922729Y-7848484D01*
X5979872Y-7848484D02*
X5979872Y-7648484D01*
X5979872Y-7648484D02*
X5960825Y-7677055D01*
X5960825Y-7677055D02*
X5941777Y-7696103D01*
X5941777Y-7696103D02*
X5922729Y-7705627D01*
X6160825Y-7648484D02*
X6179872Y-7648484D01*
X6179872Y-7648484D02*
X6198920Y-7658008D01*
X6198920Y-7658008D02*
X6208444Y-7667531D01*
X6208444Y-7667531D02*
X6217968Y-7686579D01*
X6217968Y-7686579D02*
X6227491Y-7724674D01*
X6227491Y-7724674D02*
X6227491Y-7772293D01*
X6227491Y-7772293D02*
X6217968Y-7810388D01*
X6217968Y-7810388D02*
X6208444Y-7829436D01*
X6208444Y-7829436D02*
X6198920Y-7838960D01*
X6198920Y-7838960D02*
X6179872Y-7848484D01*
X6179872Y-7848484D02*
X6160825Y-7848484D01*
X6160825Y-7848484D02*
X6141777Y-7838960D01*
X6141777Y-7838960D02*
X6132253Y-7829436D01*
X6132253Y-7829436D02*
X6122729Y-7810388D01*
X6122729Y-7810388D02*
X6113206Y-7772293D01*
X6113206Y-7772293D02*
X6113206Y-7724674D01*
X6113206Y-7724674D02*
X6122729Y-7686579D01*
X6122729Y-7686579D02*
X6132253Y-7667531D01*
X6132253Y-7667531D02*
X6141777Y-7658008D01*
X6141777Y-7658008D02*
X6160825Y-7648484D01*
X6465587Y-7848484D02*
X6465587Y-7648484D01*
X6551301Y-7848484D02*
X6551301Y-7743722D01*
X6551301Y-7743722D02*
X6541777Y-7724674D01*
X6541777Y-7724674D02*
X6522730Y-7715150D01*
X6522730Y-7715150D02*
X6494158Y-7715150D01*
X6494158Y-7715150D02*
X6475110Y-7724674D01*
X6475110Y-7724674D02*
X6465587Y-7734198D01*
X6675110Y-7848484D02*
X6656063Y-7838960D01*
X6656063Y-7838960D02*
X6646539Y-7829436D01*
X6646539Y-7829436D02*
X6637015Y-7810388D01*
X6637015Y-7810388D02*
X6637015Y-7753246D01*
X6637015Y-7753246D02*
X6646539Y-7734198D01*
X6646539Y-7734198D02*
X6656063Y-7724674D01*
X6656063Y-7724674D02*
X6675110Y-7715150D01*
X6675110Y-7715150D02*
X6703682Y-7715150D01*
X6703682Y-7715150D02*
X6722730Y-7724674D01*
X6722730Y-7724674D02*
X6732253Y-7734198D01*
X6732253Y-7734198D02*
X6741777Y-7753246D01*
X6741777Y-7753246D02*
X6741777Y-7810388D01*
X6741777Y-7810388D02*
X6732253Y-7829436D01*
X6732253Y-7829436D02*
X6722730Y-7838960D01*
X6722730Y-7838960D02*
X6703682Y-7848484D01*
X6703682Y-7848484D02*
X6675110Y-7848484D01*
X6856063Y-7848484D02*
X6837015Y-7838960D01*
X6837015Y-7838960D02*
X6827491Y-7819912D01*
X6827491Y-7819912D02*
X6827491Y-7648484D01*
X7008444Y-7838960D02*
X6989396Y-7848484D01*
X6989396Y-7848484D02*
X6951301Y-7848484D01*
X6951301Y-7848484D02*
X6932253Y-7838960D01*
X6932253Y-7838960D02*
X6922730Y-7819912D01*
X6922730Y-7819912D02*
X6922730Y-7743722D01*
X6922730Y-7743722D02*
X6932253Y-7724674D01*
X6932253Y-7724674D02*
X6951301Y-7715150D01*
X6951301Y-7715150D02*
X6989396Y-7715150D01*
X6989396Y-7715150D02*
X7008444Y-7724674D01*
X7008444Y-7724674D02*
X7017968Y-7743722D01*
X7017968Y-7743722D02*
X7017968Y-7762769D01*
X7017968Y-7762769D02*
X6922730Y-7781817D01*
X7094158Y-7838960D02*
X7113206Y-7848484D01*
X7113206Y-7848484D02*
X7151301Y-7848484D01*
X7151301Y-7848484D02*
X7170349Y-7838960D01*
X7170349Y-7838960D02*
X7179872Y-7819912D01*
X7179872Y-7819912D02*
X7179872Y-7810388D01*
X7179872Y-7810388D02*
X7170349Y-7791341D01*
X7170349Y-7791341D02*
X7151301Y-7781817D01*
X7151301Y-7781817D02*
X7122730Y-7781817D01*
X7122730Y-7781817D02*
X7103682Y-7772293D01*
X7103682Y-7772293D02*
X7094158Y-7753246D01*
X7094158Y-7753246D02*
X7094158Y-7743722D01*
X7094158Y-7743722D02*
X7103682Y-7724674D01*
X7103682Y-7724674D02*
X7122730Y-7715150D01*
X7122730Y-7715150D02*
X7151301Y-7715150D01*
X7151301Y-7715150D02*
X7170349Y-7724674D01*
X7246539Y-7924674D02*
X7256063Y-7915150D01*
X7256063Y-7915150D02*
X7275111Y-7886579D01*
X7275111Y-7886579D02*
X7284634Y-7867531D01*
X7284634Y-7867531D02*
X7294158Y-7838960D01*
X7294158Y-7838960D02*
X7303682Y-7791341D01*
X7303682Y-7791341D02*
X7303682Y-7753246D01*
X7303682Y-7753246D02*
X7294158Y-7705627D01*
X7294158Y-7705627D02*
X7284634Y-7677055D01*
X7284634Y-7677055D02*
X7275111Y-7658008D01*
X7275111Y-7658008D02*
X7256063Y-7629436D01*
X7256063Y-7629436D02*
X7246539Y-7619912D01*
D13*
X2281000Y-8021000D02*
G75*
G03*
X2281000Y-8021000I-80000J0D01*
G01*
D11*
X2646539Y-8112484D02*
X2532253Y-8112484D01*
X2589396Y-8112484D02*
X2589396Y-7912484D01*
X2589396Y-7912484D02*
X2570348Y-7941055D01*
X2570348Y-7941055D02*
X2551301Y-7960103D01*
X2551301Y-7960103D02*
X2532253Y-7969627D01*
X2732253Y-8093436D02*
X2741777Y-8102960D01*
X2741777Y-8102960D02*
X2732253Y-8112484D01*
X2732253Y-8112484D02*
X2722729Y-8102960D01*
X2722729Y-8102960D02*
X2732253Y-8093436D01*
X2732253Y-8093436D02*
X2732253Y-8112484D01*
X2913205Y-7912484D02*
X2875110Y-7912484D01*
X2875110Y-7912484D02*
X2856062Y-7922008D01*
X2856062Y-7922008D02*
X2846539Y-7931531D01*
X2846539Y-7931531D02*
X2827491Y-7960103D01*
X2827491Y-7960103D02*
X2817967Y-7998198D01*
X2817967Y-7998198D02*
X2817967Y-8074388D01*
X2817967Y-8074388D02*
X2827491Y-8093436D01*
X2827491Y-8093436D02*
X2837015Y-8102960D01*
X2837015Y-8102960D02*
X2856062Y-8112484D01*
X2856062Y-8112484D02*
X2894158Y-8112484D01*
X2894158Y-8112484D02*
X2913205Y-8102960D01*
X2913205Y-8102960D02*
X2922729Y-8093436D01*
X2922729Y-8093436D02*
X2932253Y-8074388D01*
X2932253Y-8074388D02*
X2932253Y-8026769D01*
X2932253Y-8026769D02*
X2922729Y-8007722D01*
X2922729Y-8007722D02*
X2913205Y-7998198D01*
X2913205Y-7998198D02*
X2894158Y-7988674D01*
X2894158Y-7988674D02*
X2856062Y-7988674D01*
X2856062Y-7988674D02*
X2837015Y-7998198D01*
X2837015Y-7998198D02*
X2827491Y-8007722D01*
X2827491Y-8007722D02*
X2817967Y-8026769D01*
X3056062Y-7912484D02*
X3075110Y-7912484D01*
X3075110Y-7912484D02*
X3094158Y-7922008D01*
X3094158Y-7922008D02*
X3103682Y-7931531D01*
X3103682Y-7931531D02*
X3113205Y-7950579D01*
X3113205Y-7950579D02*
X3122729Y-7988674D01*
X3122729Y-7988674D02*
X3122729Y-8036293D01*
X3122729Y-8036293D02*
X3113205Y-8074388D01*
X3113205Y-8074388D02*
X3103682Y-8093436D01*
X3103682Y-8093436D02*
X3094158Y-8102960D01*
X3094158Y-8102960D02*
X3075110Y-8112484D01*
X3075110Y-8112484D02*
X3056062Y-8112484D01*
X3056062Y-8112484D02*
X3037015Y-8102960D01*
X3037015Y-8102960D02*
X3027491Y-8093436D01*
X3027491Y-8093436D02*
X3017967Y-8074388D01*
X3017967Y-8074388D02*
X3008443Y-8036293D01*
X3008443Y-8036293D02*
X3008443Y-7988674D01*
X3008443Y-7988674D02*
X3017967Y-7950579D01*
X3017967Y-7950579D02*
X3027491Y-7931531D01*
X3027491Y-7931531D02*
X3037015Y-7922008D01*
X3037015Y-7922008D02*
X3056062Y-7912484D01*
X3246539Y-7912484D02*
X3265586Y-7912484D01*
X3265586Y-7912484D02*
X3284634Y-7922008D01*
X3284634Y-7922008D02*
X3294158Y-7931531D01*
X3294158Y-7931531D02*
X3303682Y-7950579D01*
X3303682Y-7950579D02*
X3313205Y-7988674D01*
X3313205Y-7988674D02*
X3313205Y-8036293D01*
X3313205Y-8036293D02*
X3303682Y-8074388D01*
X3303682Y-8074388D02*
X3294158Y-8093436D01*
X3294158Y-8093436D02*
X3284634Y-8102960D01*
X3284634Y-8102960D02*
X3265586Y-8112484D01*
X3265586Y-8112484D02*
X3246539Y-8112484D01*
X3246539Y-8112484D02*
X3227491Y-8102960D01*
X3227491Y-8102960D02*
X3217967Y-8093436D01*
X3217967Y-8093436D02*
X3208443Y-8074388D01*
X3208443Y-8074388D02*
X3198920Y-8036293D01*
X3198920Y-8036293D02*
X3198920Y-7988674D01*
X3198920Y-7988674D02*
X3208443Y-7950579D01*
X3208443Y-7950579D02*
X3217967Y-7931531D01*
X3217967Y-7931531D02*
X3227491Y-7922008D01*
X3227491Y-7922008D02*
X3246539Y-7912484D01*
X3398920Y-8112484D02*
X3398920Y-7979150D01*
X3398920Y-7998198D02*
X3408443Y-7988674D01*
X3408443Y-7988674D02*
X3427491Y-7979150D01*
X3427491Y-7979150D02*
X3456063Y-7979150D01*
X3456063Y-7979150D02*
X3475110Y-7988674D01*
X3475110Y-7988674D02*
X3484634Y-8007722D01*
X3484634Y-8007722D02*
X3484634Y-8112484D01*
X3484634Y-8007722D02*
X3494158Y-7988674D01*
X3494158Y-7988674D02*
X3513205Y-7979150D01*
X3513205Y-7979150D02*
X3541777Y-7979150D01*
X3541777Y-7979150D02*
X3560824Y-7988674D01*
X3560824Y-7988674D02*
X3570348Y-8007722D01*
X3570348Y-8007722D02*
X3570348Y-8112484D01*
X3665586Y-8112484D02*
X3665586Y-7979150D01*
X3665586Y-7998198D02*
X3675110Y-7988674D01*
X3675110Y-7988674D02*
X3694158Y-7979150D01*
X3694158Y-7979150D02*
X3722729Y-7979150D01*
X3722729Y-7979150D02*
X3741777Y-7988674D01*
X3741777Y-7988674D02*
X3751301Y-8007722D01*
X3751301Y-8007722D02*
X3751301Y-8112484D01*
X3751301Y-8007722D02*
X3760824Y-7988674D01*
X3760824Y-7988674D02*
X3779872Y-7979150D01*
X3779872Y-7979150D02*
X3808443Y-7979150D01*
X3808443Y-7979150D02*
X3827491Y-7988674D01*
X3827491Y-7988674D02*
X3837015Y-8007722D01*
X3837015Y-8007722D02*
X3837015Y-8112484D01*
X4227491Y-7902960D02*
X4056063Y-8160103D01*
X4484634Y-7912484D02*
X4503682Y-7912484D01*
X4503682Y-7912484D02*
X4522729Y-7922008D01*
X4522729Y-7922008D02*
X4532253Y-7931531D01*
X4532253Y-7931531D02*
X4541777Y-7950579D01*
X4541777Y-7950579D02*
X4551301Y-7988674D01*
X4551301Y-7988674D02*
X4551301Y-8036293D01*
X4551301Y-8036293D02*
X4541777Y-8074388D01*
X4541777Y-8074388D02*
X4532253Y-8093436D01*
X4532253Y-8093436D02*
X4522729Y-8102960D01*
X4522729Y-8102960D02*
X4503682Y-8112484D01*
X4503682Y-8112484D02*
X4484634Y-8112484D01*
X4484634Y-8112484D02*
X4465587Y-8102960D01*
X4465587Y-8102960D02*
X4456063Y-8093436D01*
X4456063Y-8093436D02*
X4446539Y-8074388D01*
X4446539Y-8074388D02*
X4437015Y-8036293D01*
X4437015Y-8036293D02*
X4437015Y-7988674D01*
X4437015Y-7988674D02*
X4446539Y-7950579D01*
X4446539Y-7950579D02*
X4456063Y-7931531D01*
X4456063Y-7931531D02*
X4465587Y-7922008D01*
X4465587Y-7922008D02*
X4484634Y-7912484D01*
X4637015Y-8093436D02*
X4646539Y-8102960D01*
X4646539Y-8102960D02*
X4637015Y-8112484D01*
X4637015Y-8112484D02*
X4627491Y-8102960D01*
X4627491Y-8102960D02*
X4637015Y-8093436D01*
X4637015Y-8093436D02*
X4637015Y-8112484D01*
X4770348Y-7912484D02*
X4789396Y-7912484D01*
X4789396Y-7912484D02*
X4808444Y-7922008D01*
X4808444Y-7922008D02*
X4817968Y-7931531D01*
X4817968Y-7931531D02*
X4827491Y-7950579D01*
X4827491Y-7950579D02*
X4837015Y-7988674D01*
X4837015Y-7988674D02*
X4837015Y-8036293D01*
X4837015Y-8036293D02*
X4827491Y-8074388D01*
X4827491Y-8074388D02*
X4817968Y-8093436D01*
X4817968Y-8093436D02*
X4808444Y-8102960D01*
X4808444Y-8102960D02*
X4789396Y-8112484D01*
X4789396Y-8112484D02*
X4770348Y-8112484D01*
X4770348Y-8112484D02*
X4751301Y-8102960D01*
X4751301Y-8102960D02*
X4741777Y-8093436D01*
X4741777Y-8093436D02*
X4732253Y-8074388D01*
X4732253Y-8074388D02*
X4722729Y-8036293D01*
X4722729Y-8036293D02*
X4722729Y-7988674D01*
X4722729Y-7988674D02*
X4732253Y-7950579D01*
X4732253Y-7950579D02*
X4741777Y-7931531D01*
X4741777Y-7931531D02*
X4751301Y-7922008D01*
X4751301Y-7922008D02*
X4770348Y-7912484D01*
X5008444Y-7912484D02*
X4970348Y-7912484D01*
X4970348Y-7912484D02*
X4951301Y-7922008D01*
X4951301Y-7922008D02*
X4941777Y-7931531D01*
X4941777Y-7931531D02*
X4922729Y-7960103D01*
X4922729Y-7960103D02*
X4913206Y-7998198D01*
X4913206Y-7998198D02*
X4913206Y-8074388D01*
X4913206Y-8074388D02*
X4922729Y-8093436D01*
X4922729Y-8093436D02*
X4932253Y-8102960D01*
X4932253Y-8102960D02*
X4951301Y-8112484D01*
X4951301Y-8112484D02*
X4989396Y-8112484D01*
X4989396Y-8112484D02*
X5008444Y-8102960D01*
X5008444Y-8102960D02*
X5017968Y-8093436D01*
X5017968Y-8093436D02*
X5027491Y-8074388D01*
X5027491Y-8074388D02*
X5027491Y-8026769D01*
X5027491Y-8026769D02*
X5017968Y-8007722D01*
X5017968Y-8007722D02*
X5008444Y-7998198D01*
X5008444Y-7998198D02*
X4989396Y-7988674D01*
X4989396Y-7988674D02*
X4951301Y-7988674D01*
X4951301Y-7988674D02*
X4932253Y-7998198D01*
X4932253Y-7998198D02*
X4922729Y-8007722D01*
X4922729Y-8007722D02*
X4913206Y-8026769D01*
X5094158Y-7912484D02*
X5217968Y-7912484D01*
X5217968Y-7912484D02*
X5151301Y-7988674D01*
X5151301Y-7988674D02*
X5179872Y-7988674D01*
X5179872Y-7988674D02*
X5198920Y-7998198D01*
X5198920Y-7998198D02*
X5208444Y-8007722D01*
X5208444Y-8007722D02*
X5217968Y-8026769D01*
X5217968Y-8026769D02*
X5217968Y-8074388D01*
X5217968Y-8074388D02*
X5208444Y-8093436D01*
X5208444Y-8093436D02*
X5198920Y-8102960D01*
X5198920Y-8102960D02*
X5179872Y-8112484D01*
X5179872Y-8112484D02*
X5122729Y-8112484D01*
X5122729Y-8112484D02*
X5103682Y-8102960D01*
X5103682Y-8102960D02*
X5094158Y-8093436D01*
X5341777Y-7912484D02*
X5360825Y-7912484D01*
X5360825Y-7912484D02*
X5379872Y-7922008D01*
X5379872Y-7922008D02*
X5389396Y-7931531D01*
X5389396Y-7931531D02*
X5398920Y-7950579D01*
X5398920Y-7950579D02*
X5408444Y-7988674D01*
X5408444Y-7988674D02*
X5408444Y-8036293D01*
X5408444Y-8036293D02*
X5398920Y-8074388D01*
X5398920Y-8074388D02*
X5389396Y-8093436D01*
X5389396Y-8093436D02*
X5379872Y-8102960D01*
X5379872Y-8102960D02*
X5360825Y-8112484D01*
X5360825Y-8112484D02*
X5341777Y-8112484D01*
X5341777Y-8112484D02*
X5322729Y-8102960D01*
X5322729Y-8102960D02*
X5313206Y-8093436D01*
X5313206Y-8093436D02*
X5303682Y-8074388D01*
X5303682Y-8074388D02*
X5294158Y-8036293D01*
X5294158Y-8036293D02*
X5294158Y-7988674D01*
X5294158Y-7988674D02*
X5303682Y-7950579D01*
X5303682Y-7950579D02*
X5313206Y-7931531D01*
X5313206Y-7931531D02*
X5322729Y-7922008D01*
X5322729Y-7922008D02*
X5341777Y-7912484D01*
X5484634Y-7912484D02*
X5484634Y-7950579D01*
X5560825Y-7912484D02*
X5560825Y-7950579D01*
X5856063Y-8188674D02*
X5846539Y-8179150D01*
X5846539Y-8179150D02*
X5827491Y-8150579D01*
X5827491Y-8150579D02*
X5817968Y-8131531D01*
X5817968Y-8131531D02*
X5808444Y-8102960D01*
X5808444Y-8102960D02*
X5798920Y-8055341D01*
X5798920Y-8055341D02*
X5798920Y-8017246D01*
X5798920Y-8017246D02*
X5808444Y-7969627D01*
X5808444Y-7969627D02*
X5817968Y-7941055D01*
X5817968Y-7941055D02*
X5827491Y-7922008D01*
X5827491Y-7922008D02*
X5846539Y-7893436D01*
X5846539Y-7893436D02*
X5856063Y-7883912D01*
X5922729Y-7931531D02*
X5932253Y-7922008D01*
X5932253Y-7922008D02*
X5951301Y-7912484D01*
X5951301Y-7912484D02*
X5998920Y-7912484D01*
X5998920Y-7912484D02*
X6017968Y-7922008D01*
X6017968Y-7922008D02*
X6027491Y-7931531D01*
X6027491Y-7931531D02*
X6037015Y-7950579D01*
X6037015Y-7950579D02*
X6037015Y-7969627D01*
X6037015Y-7969627D02*
X6027491Y-7998198D01*
X6027491Y-7998198D02*
X5913206Y-8112484D01*
X5913206Y-8112484D02*
X6037015Y-8112484D01*
X6275110Y-8112484D02*
X6275110Y-7912484D01*
X6360825Y-8112484D02*
X6360825Y-8007722D01*
X6360825Y-8007722D02*
X6351301Y-7988674D01*
X6351301Y-7988674D02*
X6332253Y-7979150D01*
X6332253Y-7979150D02*
X6303682Y-7979150D01*
X6303682Y-7979150D02*
X6284634Y-7988674D01*
X6284634Y-7988674D02*
X6275110Y-7998198D01*
X6484634Y-8112484D02*
X6465587Y-8102960D01*
X6465587Y-8102960D02*
X6456063Y-8093436D01*
X6456063Y-8093436D02*
X6446539Y-8074388D01*
X6446539Y-8074388D02*
X6446539Y-8017246D01*
X6446539Y-8017246D02*
X6456063Y-7998198D01*
X6456063Y-7998198D02*
X6465587Y-7988674D01*
X6465587Y-7988674D02*
X6484634Y-7979150D01*
X6484634Y-7979150D02*
X6513206Y-7979150D01*
X6513206Y-7979150D02*
X6532253Y-7988674D01*
X6532253Y-7988674D02*
X6541777Y-7998198D01*
X6541777Y-7998198D02*
X6551301Y-8017246D01*
X6551301Y-8017246D02*
X6551301Y-8074388D01*
X6551301Y-8074388D02*
X6541777Y-8093436D01*
X6541777Y-8093436D02*
X6532253Y-8102960D01*
X6532253Y-8102960D02*
X6513206Y-8112484D01*
X6513206Y-8112484D02*
X6484634Y-8112484D01*
X6665587Y-8112484D02*
X6646539Y-8102960D01*
X6646539Y-8102960D02*
X6637015Y-8083912D01*
X6637015Y-8083912D02*
X6637015Y-7912484D01*
X6817968Y-8102960D02*
X6798920Y-8112484D01*
X6798920Y-8112484D02*
X6760825Y-8112484D01*
X6760825Y-8112484D02*
X6741777Y-8102960D01*
X6741777Y-8102960D02*
X6732253Y-8083912D01*
X6732253Y-8083912D02*
X6732253Y-8007722D01*
X6732253Y-8007722D02*
X6741777Y-7988674D01*
X6741777Y-7988674D02*
X6760825Y-7979150D01*
X6760825Y-7979150D02*
X6798920Y-7979150D01*
X6798920Y-7979150D02*
X6817968Y-7988674D01*
X6817968Y-7988674D02*
X6827491Y-8007722D01*
X6827491Y-8007722D02*
X6827491Y-8026769D01*
X6827491Y-8026769D02*
X6732253Y-8045817D01*
X6903682Y-8102960D02*
X6922730Y-8112484D01*
X6922730Y-8112484D02*
X6960825Y-8112484D01*
X6960825Y-8112484D02*
X6979872Y-8102960D01*
X6979872Y-8102960D02*
X6989396Y-8083912D01*
X6989396Y-8083912D02*
X6989396Y-8074388D01*
X6989396Y-8074388D02*
X6979872Y-8055341D01*
X6979872Y-8055341D02*
X6960825Y-8045817D01*
X6960825Y-8045817D02*
X6932253Y-8045817D01*
X6932253Y-8045817D02*
X6913206Y-8036293D01*
X6913206Y-8036293D02*
X6903682Y-8017246D01*
X6903682Y-8017246D02*
X6903682Y-8007722D01*
X6903682Y-8007722D02*
X6913206Y-7988674D01*
X6913206Y-7988674D02*
X6932253Y-7979150D01*
X6932253Y-7979150D02*
X6960825Y-7979150D01*
X6960825Y-7979150D02*
X6979872Y-7988674D01*
X7056063Y-8188674D02*
X7065587Y-8179150D01*
X7065587Y-8179150D02*
X7084634Y-8150579D01*
X7084634Y-8150579D02*
X7094158Y-8131531D01*
X7094158Y-8131531D02*
X7103682Y-8102960D01*
X7103682Y-8102960D02*
X7113206Y-8055341D01*
X7113206Y-8055341D02*
X7113206Y-8017246D01*
X7113206Y-8017246D02*
X7103682Y-7969627D01*
X7103682Y-7969627D02*
X7094158Y-7941055D01*
X7094158Y-7941055D02*
X7084634Y-7922008D01*
X7084634Y-7922008D02*
X7065587Y-7893436D01*
X7065587Y-7893436D02*
X7056063Y-7883912D01*
D14*
X2186000Y-8206000D02*
X2186000Y-8396000D01*
X2091000Y-8301000D02*
X2281000Y-8301000D01*
D11*
X2646539Y-8392484D02*
X2532253Y-8392484D01*
X2589396Y-8392484D02*
X2589396Y-8192484D01*
X2589396Y-8192484D02*
X2570348Y-8221055D01*
X2570348Y-8221055D02*
X2551301Y-8240103D01*
X2551301Y-8240103D02*
X2532253Y-8249627D01*
X2732253Y-8373436D02*
X2741777Y-8382960D01*
X2741777Y-8382960D02*
X2732253Y-8392484D01*
X2732253Y-8392484D02*
X2722729Y-8382960D01*
X2722729Y-8382960D02*
X2732253Y-8373436D01*
X2732253Y-8373436D02*
X2732253Y-8392484D01*
X2837015Y-8392484D02*
X2875110Y-8392484D01*
X2875110Y-8392484D02*
X2894158Y-8382960D01*
X2894158Y-8382960D02*
X2903682Y-8373436D01*
X2903682Y-8373436D02*
X2922729Y-8344865D01*
X2922729Y-8344865D02*
X2932253Y-8306769D01*
X2932253Y-8306769D02*
X2932253Y-8230579D01*
X2932253Y-8230579D02*
X2922729Y-8211531D01*
X2922729Y-8211531D02*
X2913205Y-8202008D01*
X2913205Y-8202008D02*
X2894158Y-8192484D01*
X2894158Y-8192484D02*
X2856062Y-8192484D01*
X2856062Y-8192484D02*
X2837015Y-8202008D01*
X2837015Y-8202008D02*
X2827491Y-8211531D01*
X2827491Y-8211531D02*
X2817967Y-8230579D01*
X2817967Y-8230579D02*
X2817967Y-8278198D01*
X2817967Y-8278198D02*
X2827491Y-8297246D01*
X2827491Y-8297246D02*
X2837015Y-8306769D01*
X2837015Y-8306769D02*
X2856062Y-8316293D01*
X2856062Y-8316293D02*
X2894158Y-8316293D01*
X2894158Y-8316293D02*
X2913205Y-8306769D01*
X2913205Y-8306769D02*
X2922729Y-8297246D01*
X2922729Y-8297246D02*
X2932253Y-8278198D01*
X3056062Y-8192484D02*
X3075110Y-8192484D01*
X3075110Y-8192484D02*
X3094158Y-8202008D01*
X3094158Y-8202008D02*
X3103682Y-8211531D01*
X3103682Y-8211531D02*
X3113205Y-8230579D01*
X3113205Y-8230579D02*
X3122729Y-8268674D01*
X3122729Y-8268674D02*
X3122729Y-8316293D01*
X3122729Y-8316293D02*
X3113205Y-8354388D01*
X3113205Y-8354388D02*
X3103682Y-8373436D01*
X3103682Y-8373436D02*
X3094158Y-8382960D01*
X3094158Y-8382960D02*
X3075110Y-8392484D01*
X3075110Y-8392484D02*
X3056062Y-8392484D01*
X3056062Y-8392484D02*
X3037015Y-8382960D01*
X3037015Y-8382960D02*
X3027491Y-8373436D01*
X3027491Y-8373436D02*
X3017967Y-8354388D01*
X3017967Y-8354388D02*
X3008443Y-8316293D01*
X3008443Y-8316293D02*
X3008443Y-8268674D01*
X3008443Y-8268674D02*
X3017967Y-8230579D01*
X3017967Y-8230579D02*
X3027491Y-8211531D01*
X3027491Y-8211531D02*
X3037015Y-8202008D01*
X3037015Y-8202008D02*
X3056062Y-8192484D01*
X3246539Y-8192484D02*
X3265586Y-8192484D01*
X3265586Y-8192484D02*
X3284634Y-8202008D01*
X3284634Y-8202008D02*
X3294158Y-8211531D01*
X3294158Y-8211531D02*
X3303682Y-8230579D01*
X3303682Y-8230579D02*
X3313205Y-8268674D01*
X3313205Y-8268674D02*
X3313205Y-8316293D01*
X3313205Y-8316293D02*
X3303682Y-8354388D01*
X3303682Y-8354388D02*
X3294158Y-8373436D01*
X3294158Y-8373436D02*
X3284634Y-8382960D01*
X3284634Y-8382960D02*
X3265586Y-8392484D01*
X3265586Y-8392484D02*
X3246539Y-8392484D01*
X3246539Y-8392484D02*
X3227491Y-8382960D01*
X3227491Y-8382960D02*
X3217967Y-8373436D01*
X3217967Y-8373436D02*
X3208443Y-8354388D01*
X3208443Y-8354388D02*
X3198920Y-8316293D01*
X3198920Y-8316293D02*
X3198920Y-8268674D01*
X3198920Y-8268674D02*
X3208443Y-8230579D01*
X3208443Y-8230579D02*
X3217967Y-8211531D01*
X3217967Y-8211531D02*
X3227491Y-8202008D01*
X3227491Y-8202008D02*
X3246539Y-8192484D01*
X3398920Y-8392484D02*
X3398920Y-8259150D01*
X3398920Y-8278198D02*
X3408443Y-8268674D01*
X3408443Y-8268674D02*
X3427491Y-8259150D01*
X3427491Y-8259150D02*
X3456063Y-8259150D01*
X3456063Y-8259150D02*
X3475110Y-8268674D01*
X3475110Y-8268674D02*
X3484634Y-8287722D01*
X3484634Y-8287722D02*
X3484634Y-8392484D01*
X3484634Y-8287722D02*
X3494158Y-8268674D01*
X3494158Y-8268674D02*
X3513205Y-8259150D01*
X3513205Y-8259150D02*
X3541777Y-8259150D01*
X3541777Y-8259150D02*
X3560824Y-8268674D01*
X3560824Y-8268674D02*
X3570348Y-8287722D01*
X3570348Y-8287722D02*
X3570348Y-8392484D01*
X3665586Y-8392484D02*
X3665586Y-8259150D01*
X3665586Y-8278198D02*
X3675110Y-8268674D01*
X3675110Y-8268674D02*
X3694158Y-8259150D01*
X3694158Y-8259150D02*
X3722729Y-8259150D01*
X3722729Y-8259150D02*
X3741777Y-8268674D01*
X3741777Y-8268674D02*
X3751301Y-8287722D01*
X3751301Y-8287722D02*
X3751301Y-8392484D01*
X3751301Y-8287722D02*
X3760824Y-8268674D01*
X3760824Y-8268674D02*
X3779872Y-8259150D01*
X3779872Y-8259150D02*
X3808443Y-8259150D01*
X3808443Y-8259150D02*
X3827491Y-8268674D01*
X3827491Y-8268674D02*
X3837015Y-8287722D01*
X3837015Y-8287722D02*
X3837015Y-8392484D01*
X4227491Y-8182960D02*
X4056063Y-8440103D01*
X4484634Y-8192484D02*
X4503682Y-8192484D01*
X4503682Y-8192484D02*
X4522729Y-8202008D01*
X4522729Y-8202008D02*
X4532253Y-8211531D01*
X4532253Y-8211531D02*
X4541777Y-8230579D01*
X4541777Y-8230579D02*
X4551301Y-8268674D01*
X4551301Y-8268674D02*
X4551301Y-8316293D01*
X4551301Y-8316293D02*
X4541777Y-8354388D01*
X4541777Y-8354388D02*
X4532253Y-8373436D01*
X4532253Y-8373436D02*
X4522729Y-8382960D01*
X4522729Y-8382960D02*
X4503682Y-8392484D01*
X4503682Y-8392484D02*
X4484634Y-8392484D01*
X4484634Y-8392484D02*
X4465587Y-8382960D01*
X4465587Y-8382960D02*
X4456063Y-8373436D01*
X4456063Y-8373436D02*
X4446539Y-8354388D01*
X4446539Y-8354388D02*
X4437015Y-8316293D01*
X4437015Y-8316293D02*
X4437015Y-8268674D01*
X4437015Y-8268674D02*
X4446539Y-8230579D01*
X4446539Y-8230579D02*
X4456063Y-8211531D01*
X4456063Y-8211531D02*
X4465587Y-8202008D01*
X4465587Y-8202008D02*
X4484634Y-8192484D01*
X4637015Y-8373436D02*
X4646539Y-8382960D01*
X4646539Y-8382960D02*
X4637015Y-8392484D01*
X4637015Y-8392484D02*
X4627491Y-8382960D01*
X4627491Y-8382960D02*
X4637015Y-8373436D01*
X4637015Y-8373436D02*
X4637015Y-8392484D01*
X4770348Y-8192484D02*
X4789396Y-8192484D01*
X4789396Y-8192484D02*
X4808444Y-8202008D01*
X4808444Y-8202008D02*
X4817968Y-8211531D01*
X4817968Y-8211531D02*
X4827491Y-8230579D01*
X4827491Y-8230579D02*
X4837015Y-8268674D01*
X4837015Y-8268674D02*
X4837015Y-8316293D01*
X4837015Y-8316293D02*
X4827491Y-8354388D01*
X4827491Y-8354388D02*
X4817968Y-8373436D01*
X4817968Y-8373436D02*
X4808444Y-8382960D01*
X4808444Y-8382960D02*
X4789396Y-8392484D01*
X4789396Y-8392484D02*
X4770348Y-8392484D01*
X4770348Y-8392484D02*
X4751301Y-8382960D01*
X4751301Y-8382960D02*
X4741777Y-8373436D01*
X4741777Y-8373436D02*
X4732253Y-8354388D01*
X4732253Y-8354388D02*
X4722729Y-8316293D01*
X4722729Y-8316293D02*
X4722729Y-8268674D01*
X4722729Y-8268674D02*
X4732253Y-8230579D01*
X4732253Y-8230579D02*
X4741777Y-8211531D01*
X4741777Y-8211531D02*
X4751301Y-8202008D01*
X4751301Y-8202008D02*
X4770348Y-8192484D01*
X4903682Y-8192484D02*
X5037015Y-8192484D01*
X5037015Y-8192484D02*
X4951301Y-8392484D01*
X5198920Y-8259150D02*
X5198920Y-8392484D01*
X5151301Y-8182960D02*
X5103682Y-8325817D01*
X5103682Y-8325817D02*
X5227491Y-8325817D01*
X5332253Y-8278198D02*
X5313206Y-8268674D01*
X5313206Y-8268674D02*
X5303682Y-8259150D01*
X5303682Y-8259150D02*
X5294158Y-8240103D01*
X5294158Y-8240103D02*
X5294158Y-8230579D01*
X5294158Y-8230579D02*
X5303682Y-8211531D01*
X5303682Y-8211531D02*
X5313206Y-8202008D01*
X5313206Y-8202008D02*
X5332253Y-8192484D01*
X5332253Y-8192484D02*
X5370349Y-8192484D01*
X5370349Y-8192484D02*
X5389396Y-8202008D01*
X5389396Y-8202008D02*
X5398920Y-8211531D01*
X5398920Y-8211531D02*
X5408444Y-8230579D01*
X5408444Y-8230579D02*
X5408444Y-8240103D01*
X5408444Y-8240103D02*
X5398920Y-8259150D01*
X5398920Y-8259150D02*
X5389396Y-8268674D01*
X5389396Y-8268674D02*
X5370349Y-8278198D01*
X5370349Y-8278198D02*
X5332253Y-8278198D01*
X5332253Y-8278198D02*
X5313206Y-8287722D01*
X5313206Y-8287722D02*
X5303682Y-8297246D01*
X5303682Y-8297246D02*
X5294158Y-8316293D01*
X5294158Y-8316293D02*
X5294158Y-8354388D01*
X5294158Y-8354388D02*
X5303682Y-8373436D01*
X5303682Y-8373436D02*
X5313206Y-8382960D01*
X5313206Y-8382960D02*
X5332253Y-8392484D01*
X5332253Y-8392484D02*
X5370349Y-8392484D01*
X5370349Y-8392484D02*
X5389396Y-8382960D01*
X5389396Y-8382960D02*
X5398920Y-8373436D01*
X5398920Y-8373436D02*
X5408444Y-8354388D01*
X5408444Y-8354388D02*
X5408444Y-8316293D01*
X5408444Y-8316293D02*
X5398920Y-8297246D01*
X5398920Y-8297246D02*
X5389396Y-8287722D01*
X5389396Y-8287722D02*
X5370349Y-8278198D01*
X5484634Y-8192484D02*
X5484634Y-8230579D01*
X5560825Y-8192484D02*
X5560825Y-8230579D01*
X5856063Y-8468674D02*
X5846539Y-8459150D01*
X5846539Y-8459150D02*
X5827491Y-8430579D01*
X5827491Y-8430579D02*
X5817968Y-8411531D01*
X5817968Y-8411531D02*
X5808444Y-8382960D01*
X5808444Y-8382960D02*
X5798920Y-8335341D01*
X5798920Y-8335341D02*
X5798920Y-8297246D01*
X5798920Y-8297246D02*
X5808444Y-8249627D01*
X5808444Y-8249627D02*
X5817968Y-8221055D01*
X5817968Y-8221055D02*
X5827491Y-8202008D01*
X5827491Y-8202008D02*
X5846539Y-8173436D01*
X5846539Y-8173436D02*
X5856063Y-8163912D01*
X5960825Y-8278198D02*
X5941777Y-8268674D01*
X5941777Y-8268674D02*
X5932253Y-8259150D01*
X5932253Y-8259150D02*
X5922729Y-8240103D01*
X5922729Y-8240103D02*
X5922729Y-8230579D01*
X5922729Y-8230579D02*
X5932253Y-8211531D01*
X5932253Y-8211531D02*
X5941777Y-8202008D01*
X5941777Y-8202008D02*
X5960825Y-8192484D01*
X5960825Y-8192484D02*
X5998920Y-8192484D01*
X5998920Y-8192484D02*
X6017968Y-8202008D01*
X6017968Y-8202008D02*
X6027491Y-8211531D01*
X6027491Y-8211531D02*
X6037015Y-8230579D01*
X6037015Y-8230579D02*
X6037015Y-8240103D01*
X6037015Y-8240103D02*
X6027491Y-8259150D01*
X6027491Y-8259150D02*
X6017968Y-8268674D01*
X6017968Y-8268674D02*
X5998920Y-8278198D01*
X5998920Y-8278198D02*
X5960825Y-8278198D01*
X5960825Y-8278198D02*
X5941777Y-8287722D01*
X5941777Y-8287722D02*
X5932253Y-8297246D01*
X5932253Y-8297246D02*
X5922729Y-8316293D01*
X5922729Y-8316293D02*
X5922729Y-8354388D01*
X5922729Y-8354388D02*
X5932253Y-8373436D01*
X5932253Y-8373436D02*
X5941777Y-8382960D01*
X5941777Y-8382960D02*
X5960825Y-8392484D01*
X5960825Y-8392484D02*
X5998920Y-8392484D01*
X5998920Y-8392484D02*
X6017968Y-8382960D01*
X6017968Y-8382960D02*
X6027491Y-8373436D01*
X6027491Y-8373436D02*
X6037015Y-8354388D01*
X6037015Y-8354388D02*
X6037015Y-8316293D01*
X6037015Y-8316293D02*
X6027491Y-8297246D01*
X6027491Y-8297246D02*
X6017968Y-8287722D01*
X6017968Y-8287722D02*
X5998920Y-8278198D01*
X6275110Y-8392484D02*
X6275110Y-8192484D01*
X6360825Y-8392484D02*
X6360825Y-8287722D01*
X6360825Y-8287722D02*
X6351301Y-8268674D01*
X6351301Y-8268674D02*
X6332253Y-8259150D01*
X6332253Y-8259150D02*
X6303682Y-8259150D01*
X6303682Y-8259150D02*
X6284634Y-8268674D01*
X6284634Y-8268674D02*
X6275110Y-8278198D01*
X6484634Y-8392484D02*
X6465587Y-8382960D01*
X6465587Y-8382960D02*
X6456063Y-8373436D01*
X6456063Y-8373436D02*
X6446539Y-8354388D01*
X6446539Y-8354388D02*
X6446539Y-8297246D01*
X6446539Y-8297246D02*
X6456063Y-8278198D01*
X6456063Y-8278198D02*
X6465587Y-8268674D01*
X6465587Y-8268674D02*
X6484634Y-8259150D01*
X6484634Y-8259150D02*
X6513206Y-8259150D01*
X6513206Y-8259150D02*
X6532253Y-8268674D01*
X6532253Y-8268674D02*
X6541777Y-8278198D01*
X6541777Y-8278198D02*
X6551301Y-8297246D01*
X6551301Y-8297246D02*
X6551301Y-8354388D01*
X6551301Y-8354388D02*
X6541777Y-8373436D01*
X6541777Y-8373436D02*
X6532253Y-8382960D01*
X6532253Y-8382960D02*
X6513206Y-8392484D01*
X6513206Y-8392484D02*
X6484634Y-8392484D01*
X6665587Y-8392484D02*
X6646539Y-8382960D01*
X6646539Y-8382960D02*
X6637015Y-8363912D01*
X6637015Y-8363912D02*
X6637015Y-8192484D01*
X6817968Y-8382960D02*
X6798920Y-8392484D01*
X6798920Y-8392484D02*
X6760825Y-8392484D01*
X6760825Y-8392484D02*
X6741777Y-8382960D01*
X6741777Y-8382960D02*
X6732253Y-8363912D01*
X6732253Y-8363912D02*
X6732253Y-8287722D01*
X6732253Y-8287722D02*
X6741777Y-8268674D01*
X6741777Y-8268674D02*
X6760825Y-8259150D01*
X6760825Y-8259150D02*
X6798920Y-8259150D01*
X6798920Y-8259150D02*
X6817968Y-8268674D01*
X6817968Y-8268674D02*
X6827491Y-8287722D01*
X6827491Y-8287722D02*
X6827491Y-8306769D01*
X6827491Y-8306769D02*
X6732253Y-8325817D01*
X6903682Y-8382960D02*
X6922730Y-8392484D01*
X6922730Y-8392484D02*
X6960825Y-8392484D01*
X6960825Y-8392484D02*
X6979872Y-8382960D01*
X6979872Y-8382960D02*
X6989396Y-8363912D01*
X6989396Y-8363912D02*
X6989396Y-8354388D01*
X6989396Y-8354388D02*
X6979872Y-8335341D01*
X6979872Y-8335341D02*
X6960825Y-8325817D01*
X6960825Y-8325817D02*
X6932253Y-8325817D01*
X6932253Y-8325817D02*
X6913206Y-8316293D01*
X6913206Y-8316293D02*
X6903682Y-8297246D01*
X6903682Y-8297246D02*
X6903682Y-8287722D01*
X6903682Y-8287722D02*
X6913206Y-8268674D01*
X6913206Y-8268674D02*
X6932253Y-8259150D01*
X6932253Y-8259150D02*
X6960825Y-8259150D01*
X6960825Y-8259150D02*
X6979872Y-8268674D01*
X7056063Y-8468674D02*
X7065587Y-8459150D01*
X7065587Y-8459150D02*
X7084634Y-8430579D01*
X7084634Y-8430579D02*
X7094158Y-8411531D01*
X7094158Y-8411531D02*
X7103682Y-8382960D01*
X7103682Y-8382960D02*
X7113206Y-8335341D01*
X7113206Y-8335341D02*
X7113206Y-8297246D01*
X7113206Y-8297246D02*
X7103682Y-8249627D01*
X7103682Y-8249627D02*
X7094158Y-8221055D01*
X7094158Y-8221055D02*
X7084634Y-8202008D01*
X7084634Y-8202008D02*
X7065587Y-8173436D01*
X7065587Y-8173436D02*
X7056063Y-8163912D01*
M02*
