%TF.GenerationSoftware,KiCad,Pcbnew,7.0.8-7.0.8~ubuntu22.04.1*%
%TF.CreationDate,2023-10-03T21:39:05-05:00*%
%TF.ProjectId,bandpass_filter,62616e64-7061-4737-935f-66696c746572,rev?*%
%TF.SameCoordinates,Original*%
%TF.FileFunction,Copper,L2,Bot*%
%TF.FilePolarity,Positive*%
%FSLAX46Y46*%
G04 Gerber Fmt 4.6, Leading zero omitted, Abs format (unit mm)*
G04 Created by KiCad (PCBNEW 7.0.8-7.0.8~ubuntu22.04.1) date 2023-10-03 21:39:05*
%MOMM*%
%LPD*%
G01*
G04 APERTURE LIST*
%TA.AperFunction,ComponentPad*%
%ADD10C,2.400000*%
%TD*%
%TA.AperFunction,ComponentPad*%
%ADD11C,2.850000*%
%TD*%
%TA.AperFunction,ViaPad*%
%ADD12C,0.800000*%
%TD*%
G04 APERTURE END LIST*
D10*
%TO.P,J3,1,1*%
%TO.N,Net-(J3-Pad1)*%
X38065000Y-59429307D03*
D11*
%TO.P,J3,2,2*%
%TO.N,GND*%
X35490000Y-56854307D03*
%TO.P,J3,3,3*%
X35490000Y-62004307D03*
%TO.P,J3,4,4*%
X40640000Y-62004307D03*
%TO.P,J3,5,5*%
X40640000Y-56854307D03*
%TD*%
D10*
%TO.P,J1,1,1*%
%TO.N,Net-(J1-Pad1)*%
X99060000Y-59941437D03*
D11*
%TO.P,J1,2,2*%
%TO.N,GND*%
X96485000Y-57366437D03*
%TO.P,J1,3,3*%
X96485000Y-62516437D03*
%TO.P,J1,4,4*%
X101635000Y-62516437D03*
%TO.P,J1,5,5*%
X101635000Y-57366437D03*
%TD*%
D12*
%TO.N,GND*%
X83820000Y-64770000D03*
X68580000Y-64770000D03*
X53340000Y-64770000D03*
X57150000Y-64770000D03*
X49530000Y-64770000D03*
X72390000Y-64770000D03*
X64770000Y-64770000D03*
X80010000Y-64770000D03*
X60960000Y-64770000D03*
X76200000Y-64770000D03*
%TD*%
%TA.AperFunction,Conductor*%
%TO.N,GND*%
G36*
X113815677Y-47009685D02*
G01*
X113836319Y-47026319D01*
X114263681Y-47453681D01*
X114297166Y-47515004D01*
X114300000Y-47541362D01*
X114300000Y-69298638D01*
X114280315Y-69365677D01*
X114263681Y-69386319D01*
X113836319Y-69813681D01*
X113774996Y-69847166D01*
X113748638Y-69850000D01*
X24681362Y-69850000D01*
X24614323Y-69830315D01*
X24593681Y-69813681D01*
X24166319Y-69386319D01*
X24132834Y-69324996D01*
X24130000Y-69298638D01*
X24130000Y-66040005D01*
X25394477Y-66040005D01*
X25414547Y-66359028D01*
X25414548Y-66359035D01*
X25425798Y-66418009D01*
X25426775Y-66425740D01*
X25427884Y-66443377D01*
X25434250Y-66462316D01*
X25474449Y-66673046D01*
X25573233Y-66977070D01*
X25709341Y-67266315D01*
X25709343Y-67266318D01*
X25709344Y-67266320D01*
X25741503Y-67316995D01*
X25745257Y-67323823D01*
X25747367Y-67328307D01*
X25748891Y-67329434D01*
X25754762Y-67337887D01*
X25880629Y-67536221D01*
X26080983Y-67778407D01*
X26084399Y-67782536D01*
X26317421Y-68001357D01*
X26317431Y-68001365D01*
X26576029Y-68189248D01*
X26576047Y-68189260D01*
X26856169Y-68343258D01*
X26856177Y-68343262D01*
X27138923Y-68455208D01*
X27153390Y-68460936D01*
X27463017Y-68540435D01*
X27529549Y-68548840D01*
X27780153Y-68580499D01*
X27780162Y-68580499D01*
X27780165Y-68580500D01*
X27780167Y-68580500D01*
X28099833Y-68580500D01*
X28099835Y-68580500D01*
X28099838Y-68580499D01*
X28099846Y-68580499D01*
X28289089Y-68556591D01*
X28416983Y-68540435D01*
X28726610Y-68460936D01*
X28871670Y-68403502D01*
X29023822Y-68343262D01*
X29023826Y-68343259D01*
X29023831Y-68343258D01*
X29303959Y-68189256D01*
X29562577Y-68001359D01*
X29795606Y-67782530D01*
X29999371Y-67536221D01*
X30125237Y-67337887D01*
X30130151Y-67333580D01*
X30134741Y-67323826D01*
X30138496Y-67316995D01*
X30170659Y-67266315D01*
X30306767Y-66977070D01*
X30405551Y-66673046D01*
X30465451Y-66359039D01*
X30473360Y-66233322D01*
X30473725Y-66229466D01*
X30475815Y-66212918D01*
X30475014Y-66207037D01*
X30485523Y-66040005D01*
X106674477Y-66040005D01*
X106694547Y-66359028D01*
X106694548Y-66359035D01*
X106705798Y-66418009D01*
X106706775Y-66425740D01*
X106707884Y-66443377D01*
X106714250Y-66462316D01*
X106754449Y-66673046D01*
X106853233Y-66977070D01*
X106989341Y-67266315D01*
X106989343Y-67266318D01*
X106989344Y-67266320D01*
X107021503Y-67316995D01*
X107025257Y-67323823D01*
X107027367Y-67328307D01*
X107028891Y-67329434D01*
X107034762Y-67337887D01*
X107160629Y-67536221D01*
X107360983Y-67778407D01*
X107364399Y-67782536D01*
X107597421Y-68001357D01*
X107597431Y-68001365D01*
X107856029Y-68189248D01*
X107856047Y-68189260D01*
X108136169Y-68343258D01*
X108136177Y-68343262D01*
X108418923Y-68455208D01*
X108433390Y-68460936D01*
X108743017Y-68540435D01*
X108809549Y-68548840D01*
X109060153Y-68580499D01*
X109060162Y-68580499D01*
X109060165Y-68580500D01*
X109060167Y-68580500D01*
X109379833Y-68580500D01*
X109379835Y-68580500D01*
X109379838Y-68580499D01*
X109379846Y-68580499D01*
X109569089Y-68556591D01*
X109696983Y-68540435D01*
X110006610Y-68460936D01*
X110151670Y-68403502D01*
X110303822Y-68343262D01*
X110303826Y-68343259D01*
X110303831Y-68343258D01*
X110583959Y-68189256D01*
X110842577Y-68001359D01*
X111075606Y-67782530D01*
X111279371Y-67536221D01*
X111405237Y-67337887D01*
X111410151Y-67333580D01*
X111414741Y-67323826D01*
X111418496Y-67316995D01*
X111450659Y-67266315D01*
X111586767Y-66977070D01*
X111685551Y-66673046D01*
X111745451Y-66359039D01*
X111753360Y-66233322D01*
X111753725Y-66229466D01*
X111755815Y-66212918D01*
X111755014Y-66207037D01*
X111765523Y-66040005D01*
X111765523Y-66039994D01*
X111755014Y-65872961D01*
X111756005Y-65868582D01*
X111753725Y-65850531D01*
X111753359Y-65846668D01*
X111745451Y-65720961D01*
X111685551Y-65406954D01*
X111586767Y-65102930D01*
X111450659Y-64813685D01*
X111418496Y-64763004D01*
X111414742Y-64756174D01*
X111412623Y-64751672D01*
X111411084Y-64750533D01*
X111405237Y-64742112D01*
X111279371Y-64543779D01*
X111075606Y-64297470D01*
X111075605Y-64297469D01*
X111075600Y-64297463D01*
X110842578Y-64078642D01*
X110842568Y-64078634D01*
X110583970Y-63890751D01*
X110583952Y-63890739D01*
X110303830Y-63736741D01*
X110303822Y-63736737D01*
X110006614Y-63619065D01*
X109977123Y-63611493D01*
X109696983Y-63539565D01*
X109696980Y-63539564D01*
X109696973Y-63539563D01*
X109379846Y-63499500D01*
X109379835Y-63499500D01*
X109060165Y-63499500D01*
X109060153Y-63499500D01*
X108743026Y-63539563D01*
X108743017Y-63539565D01*
X108433385Y-63619065D01*
X108136177Y-63736737D01*
X108136169Y-63736741D01*
X107856047Y-63890739D01*
X107856029Y-63890751D01*
X107597431Y-64078634D01*
X107597421Y-64078642D01*
X107364399Y-64297463D01*
X107160624Y-64543785D01*
X107034761Y-64742112D01*
X107029848Y-64746417D01*
X107025256Y-64756177D01*
X107021503Y-64763004D01*
X106989343Y-64813681D01*
X106989341Y-64813684D01*
X106989341Y-64813685D01*
X106898602Y-65006515D01*
X106853232Y-65102932D01*
X106754448Y-65406954D01*
X106754448Y-65406956D01*
X106714249Y-65617683D01*
X106708353Y-65629172D01*
X106706775Y-65654259D01*
X106705798Y-65661990D01*
X106694548Y-65720963D01*
X106694547Y-65720971D01*
X106674477Y-66039994D01*
X106674477Y-66040005D01*
X30485523Y-66040005D01*
X30485523Y-66039994D01*
X30475014Y-65872961D01*
X30476005Y-65868582D01*
X30473725Y-65850531D01*
X30473359Y-65846668D01*
X30465451Y-65720961D01*
X30405551Y-65406954D01*
X30306767Y-65102930D01*
X30170659Y-64813685D01*
X30138496Y-64763004D01*
X30134742Y-64756174D01*
X30132623Y-64751672D01*
X30131084Y-64750533D01*
X30125237Y-64742112D01*
X29999371Y-64543779D01*
X29795606Y-64297470D01*
X29795605Y-64297469D01*
X29795600Y-64297463D01*
X29562578Y-64078642D01*
X29562568Y-64078634D01*
X29303970Y-63890751D01*
X29303952Y-63890739D01*
X29023830Y-63736741D01*
X29023822Y-63736737D01*
X28726614Y-63619065D01*
X28697123Y-63611493D01*
X28416983Y-63539565D01*
X28416980Y-63539564D01*
X28416973Y-63539563D01*
X28099846Y-63499500D01*
X28099835Y-63499500D01*
X27780165Y-63499500D01*
X27780153Y-63499500D01*
X27463026Y-63539563D01*
X27463017Y-63539565D01*
X27153385Y-63619065D01*
X26856177Y-63736737D01*
X26856169Y-63736741D01*
X26576047Y-63890739D01*
X26576029Y-63890751D01*
X26317431Y-64078634D01*
X26317421Y-64078642D01*
X26084399Y-64297463D01*
X25880624Y-64543785D01*
X25754761Y-64742112D01*
X25749848Y-64746417D01*
X25745256Y-64756177D01*
X25741503Y-64763004D01*
X25709343Y-64813681D01*
X25709341Y-64813684D01*
X25709341Y-64813685D01*
X25618602Y-65006515D01*
X25573232Y-65102932D01*
X25474448Y-65406954D01*
X25474448Y-65406956D01*
X25434249Y-65617683D01*
X25428353Y-65629172D01*
X25426775Y-65654259D01*
X25425798Y-65661990D01*
X25414548Y-65720963D01*
X25414547Y-65720971D01*
X25394477Y-66039994D01*
X25394477Y-66040005D01*
X24130000Y-66040005D01*
X24130000Y-59429311D01*
X36359732Y-59429311D01*
X36378777Y-59683461D01*
X36378778Y-59683464D01*
X36435492Y-59931944D01*
X36528607Y-60169195D01*
X36656041Y-60389919D01*
X36814950Y-60589184D01*
X37001783Y-60762539D01*
X37212366Y-60906112D01*
X37212371Y-60906114D01*
X37212372Y-60906115D01*
X37212373Y-60906116D01*
X37334328Y-60964845D01*
X37441992Y-61016694D01*
X37441993Y-61016694D01*
X37441996Y-61016696D01*
X37685542Y-61091820D01*
X37937565Y-61129807D01*
X38192435Y-61129807D01*
X38444458Y-61091820D01*
X38688004Y-61016696D01*
X38917634Y-60906112D01*
X39128217Y-60762539D01*
X39315050Y-60589184D01*
X39473959Y-60389919D01*
X39601393Y-60169195D01*
X39690781Y-59941441D01*
X97354732Y-59941441D01*
X97373777Y-60195591D01*
X97373778Y-60195594D01*
X97430492Y-60444074D01*
X97523607Y-60681325D01*
X97651041Y-60902049D01*
X97809950Y-61101314D01*
X97996783Y-61274669D01*
X98207366Y-61418242D01*
X98207371Y-61418244D01*
X98207372Y-61418245D01*
X98207373Y-61418246D01*
X98329328Y-61476975D01*
X98436992Y-61528824D01*
X98436993Y-61528824D01*
X98436996Y-61528826D01*
X98680542Y-61603950D01*
X98932565Y-61641937D01*
X99187435Y-61641937D01*
X99439458Y-61603950D01*
X99683004Y-61528826D01*
X99912634Y-61418242D01*
X100123217Y-61274669D01*
X100310050Y-61101314D01*
X100468959Y-60902049D01*
X100596393Y-60681325D01*
X100689508Y-60444074D01*
X100746222Y-60195594D01*
X100765268Y-59941437D01*
X100746222Y-59687280D01*
X100689508Y-59438800D01*
X100596393Y-59201549D01*
X100468959Y-58980825D01*
X100310050Y-58781560D01*
X100123217Y-58608205D01*
X99912634Y-58464632D01*
X99912630Y-58464630D01*
X99912627Y-58464628D01*
X99912626Y-58464627D01*
X99683006Y-58354049D01*
X99683008Y-58354049D01*
X99439466Y-58278926D01*
X99439462Y-58278925D01*
X99439458Y-58278924D01*
X99318231Y-58260651D01*
X99187440Y-58240937D01*
X99187435Y-58240937D01*
X98932565Y-58240937D01*
X98932559Y-58240937D01*
X98775609Y-58264594D01*
X98680542Y-58278924D01*
X98680539Y-58278925D01*
X98680533Y-58278926D01*
X98436992Y-58354049D01*
X98207373Y-58464627D01*
X98207372Y-58464628D01*
X97996782Y-58608205D01*
X97809952Y-58781558D01*
X97809950Y-58781560D01*
X97651041Y-58980825D01*
X97523608Y-59201546D01*
X97430492Y-59438799D01*
X97430490Y-59438806D01*
X97373777Y-59687282D01*
X97354732Y-59941432D01*
X97354732Y-59941441D01*
X39690781Y-59941441D01*
X39694508Y-59931944D01*
X39751222Y-59683464D01*
X39770268Y-59429307D01*
X39751222Y-59175150D01*
X39694508Y-58926670D01*
X39601393Y-58689419D01*
X39473959Y-58468695D01*
X39315050Y-58269430D01*
X39128217Y-58096075D01*
X38917634Y-57952502D01*
X38917630Y-57952500D01*
X38917627Y-57952498D01*
X38917626Y-57952497D01*
X38688006Y-57841919D01*
X38688008Y-57841919D01*
X38444466Y-57766796D01*
X38444462Y-57766795D01*
X38444458Y-57766794D01*
X38323231Y-57748521D01*
X38192440Y-57728807D01*
X38192435Y-57728807D01*
X37937565Y-57728807D01*
X37937559Y-57728807D01*
X37780609Y-57752464D01*
X37685542Y-57766794D01*
X37685539Y-57766795D01*
X37685533Y-57766796D01*
X37441992Y-57841919D01*
X37212373Y-57952497D01*
X37212372Y-57952498D01*
X37001782Y-58096075D01*
X36814952Y-58269428D01*
X36814950Y-58269430D01*
X36656041Y-58468695D01*
X36528608Y-58689416D01*
X36435492Y-58926669D01*
X36435490Y-58926676D01*
X36378777Y-59175152D01*
X36359732Y-59429302D01*
X36359732Y-59429311D01*
X24130000Y-59429311D01*
X24130000Y-50800005D01*
X25394477Y-50800005D01*
X25414547Y-51119028D01*
X25414548Y-51119035D01*
X25425798Y-51178009D01*
X25426775Y-51185740D01*
X25427884Y-51203377D01*
X25434250Y-51222316D01*
X25474449Y-51433046D01*
X25573233Y-51737070D01*
X25709341Y-52026315D01*
X25709343Y-52026318D01*
X25709344Y-52026320D01*
X25741503Y-52076995D01*
X25745257Y-52083823D01*
X25747367Y-52088307D01*
X25748891Y-52089434D01*
X25754762Y-52097887D01*
X25880629Y-52296221D01*
X26080983Y-52538407D01*
X26084399Y-52542536D01*
X26317421Y-52761357D01*
X26317431Y-52761365D01*
X26576029Y-52949248D01*
X26576047Y-52949260D01*
X26856169Y-53103258D01*
X26856177Y-53103262D01*
X27138923Y-53215208D01*
X27153390Y-53220936D01*
X27463017Y-53300435D01*
X27529549Y-53308840D01*
X27780153Y-53340499D01*
X27780162Y-53340499D01*
X27780165Y-53340500D01*
X27780167Y-53340500D01*
X28099833Y-53340500D01*
X28099835Y-53340500D01*
X28099838Y-53340499D01*
X28099846Y-53340499D01*
X28289089Y-53316591D01*
X28416983Y-53300435D01*
X28726610Y-53220936D01*
X28871670Y-53163502D01*
X29023822Y-53103262D01*
X29023826Y-53103259D01*
X29023831Y-53103258D01*
X29303959Y-52949256D01*
X29562577Y-52761359D01*
X29795606Y-52542530D01*
X29999371Y-52296221D01*
X30125237Y-52097887D01*
X30130151Y-52093580D01*
X30134741Y-52083826D01*
X30138496Y-52076995D01*
X30170659Y-52026315D01*
X30306767Y-51737070D01*
X30405551Y-51433046D01*
X30465451Y-51119039D01*
X30473360Y-50993322D01*
X30473725Y-50989466D01*
X30475815Y-50972918D01*
X30475014Y-50967037D01*
X30485523Y-50800005D01*
X106674477Y-50800005D01*
X106694547Y-51119028D01*
X106694548Y-51119035D01*
X106705798Y-51178009D01*
X106706775Y-51185740D01*
X106707884Y-51203377D01*
X106714250Y-51222316D01*
X106754449Y-51433046D01*
X106853233Y-51737070D01*
X106989341Y-52026315D01*
X106989343Y-52026318D01*
X106989344Y-52026320D01*
X107021503Y-52076995D01*
X107025257Y-52083823D01*
X107027367Y-52088307D01*
X107028891Y-52089434D01*
X107034762Y-52097887D01*
X107160629Y-52296221D01*
X107360983Y-52538407D01*
X107364399Y-52542536D01*
X107597421Y-52761357D01*
X107597431Y-52761365D01*
X107856029Y-52949248D01*
X107856047Y-52949260D01*
X108136169Y-53103258D01*
X108136177Y-53103262D01*
X108418923Y-53215208D01*
X108433390Y-53220936D01*
X108743017Y-53300435D01*
X108809549Y-53308840D01*
X109060153Y-53340499D01*
X109060162Y-53340499D01*
X109060165Y-53340500D01*
X109060167Y-53340500D01*
X109379833Y-53340500D01*
X109379835Y-53340500D01*
X109379838Y-53340499D01*
X109379846Y-53340499D01*
X109569089Y-53316591D01*
X109696983Y-53300435D01*
X110006610Y-53220936D01*
X110151670Y-53163502D01*
X110303822Y-53103262D01*
X110303826Y-53103259D01*
X110303831Y-53103258D01*
X110583959Y-52949256D01*
X110842577Y-52761359D01*
X111075606Y-52542530D01*
X111279371Y-52296221D01*
X111405237Y-52097887D01*
X111410151Y-52093580D01*
X111414741Y-52083826D01*
X111418496Y-52076995D01*
X111450659Y-52026315D01*
X111586767Y-51737070D01*
X111685551Y-51433046D01*
X111745451Y-51119039D01*
X111753360Y-50993322D01*
X111753725Y-50989466D01*
X111755815Y-50972918D01*
X111755014Y-50967037D01*
X111765523Y-50800005D01*
X111765523Y-50799994D01*
X111755014Y-50632961D01*
X111756005Y-50628582D01*
X111753725Y-50610531D01*
X111753359Y-50606668D01*
X111745451Y-50480961D01*
X111685551Y-50166954D01*
X111586767Y-49862930D01*
X111450659Y-49573685D01*
X111418496Y-49523004D01*
X111414742Y-49516174D01*
X111412623Y-49511672D01*
X111411084Y-49510533D01*
X111405237Y-49502112D01*
X111279371Y-49303779D01*
X111075606Y-49057470D01*
X111075605Y-49057469D01*
X111075600Y-49057463D01*
X110842578Y-48838642D01*
X110842568Y-48838634D01*
X110583970Y-48650751D01*
X110583952Y-48650739D01*
X110303830Y-48496741D01*
X110303822Y-48496737D01*
X110006614Y-48379065D01*
X109977123Y-48371493D01*
X109696983Y-48299565D01*
X109696980Y-48299564D01*
X109696973Y-48299563D01*
X109379846Y-48259500D01*
X109379835Y-48259500D01*
X109060165Y-48259500D01*
X109060153Y-48259500D01*
X108743026Y-48299563D01*
X108743017Y-48299565D01*
X108433385Y-48379065D01*
X108136177Y-48496737D01*
X108136169Y-48496741D01*
X107856047Y-48650739D01*
X107856029Y-48650751D01*
X107597431Y-48838634D01*
X107597421Y-48838642D01*
X107364399Y-49057463D01*
X107160624Y-49303785D01*
X107034761Y-49502112D01*
X107029848Y-49506417D01*
X107025256Y-49516177D01*
X107021503Y-49523004D01*
X106989343Y-49573681D01*
X106989341Y-49573684D01*
X106989341Y-49573685D01*
X106898602Y-49766515D01*
X106853232Y-49862932D01*
X106754448Y-50166954D01*
X106754448Y-50166956D01*
X106714249Y-50377683D01*
X106708353Y-50389172D01*
X106706775Y-50414259D01*
X106705798Y-50421990D01*
X106694548Y-50480963D01*
X106694547Y-50480971D01*
X106674477Y-50799994D01*
X106674477Y-50800005D01*
X30485523Y-50800005D01*
X30485523Y-50799994D01*
X30475014Y-50632961D01*
X30476005Y-50628582D01*
X30473725Y-50610531D01*
X30473359Y-50606668D01*
X30465451Y-50480961D01*
X30405551Y-50166954D01*
X30306767Y-49862930D01*
X30170659Y-49573685D01*
X30138496Y-49523004D01*
X30134742Y-49516174D01*
X30132623Y-49511672D01*
X30131084Y-49510533D01*
X30125237Y-49502112D01*
X29999371Y-49303779D01*
X29795606Y-49057470D01*
X29795605Y-49057469D01*
X29795600Y-49057463D01*
X29562578Y-48838642D01*
X29562568Y-48838634D01*
X29303970Y-48650751D01*
X29303952Y-48650739D01*
X29023830Y-48496741D01*
X29023822Y-48496737D01*
X28726614Y-48379065D01*
X28697123Y-48371493D01*
X28416983Y-48299565D01*
X28416980Y-48299564D01*
X28416973Y-48299563D01*
X28099846Y-48259500D01*
X28099835Y-48259500D01*
X27780165Y-48259500D01*
X27780153Y-48259500D01*
X27463026Y-48299563D01*
X27463017Y-48299565D01*
X27153385Y-48379065D01*
X26856177Y-48496737D01*
X26856169Y-48496741D01*
X26576047Y-48650739D01*
X26576029Y-48650751D01*
X26317431Y-48838634D01*
X26317421Y-48838642D01*
X26084399Y-49057463D01*
X25880624Y-49303785D01*
X25754761Y-49502112D01*
X25749848Y-49506417D01*
X25745256Y-49516177D01*
X25741503Y-49523004D01*
X25709343Y-49573681D01*
X25709341Y-49573684D01*
X25709341Y-49573685D01*
X25618602Y-49766515D01*
X25573232Y-49862932D01*
X25474448Y-50166954D01*
X25474448Y-50166956D01*
X25434249Y-50377683D01*
X25428353Y-50389172D01*
X25426775Y-50414259D01*
X25425798Y-50421990D01*
X25414548Y-50480963D01*
X25414547Y-50480971D01*
X25394477Y-50799994D01*
X25394477Y-50800005D01*
X24130000Y-50800005D01*
X24130000Y-47541362D01*
X24149685Y-47474323D01*
X24166319Y-47453681D01*
X24593681Y-47026319D01*
X24655004Y-46992834D01*
X24681362Y-46990000D01*
X113748638Y-46990000D01*
X113815677Y-47009685D01*
G37*
%TD.AperFunction*%
%TD*%
M02*
