%TF.GenerationSoftware,KiCad,Pcbnew,7.0.8-7.0.8~ubuntu22.04.1*%
%TF.CreationDate,2023-10-03T21:39:05-05:00*%
%TF.ProjectId,bandpass_filter,62616e64-7061-4737-935f-66696c746572,rev?*%
%TF.SameCoordinates,Original*%
%TF.FileFunction,Soldermask,Top*%
%TF.FilePolarity,Negative*%
%FSLAX46Y46*%
G04 Gerber Fmt 4.6, Leading zero omitted, Abs format (unit mm)*
G04 Created by KiCad (PCBNEW 7.0.8-7.0.8~ubuntu22.04.1) date 2023-10-03 21:39:05*
%MOMM*%
%LPD*%
G01*
G04 APERTURE LIST*
G04 Aperture macros list*
%AMRoundRect*
0 Rectangle with rounded corners*
0 $1 Rounding radius*
0 $2 $3 $4 $5 $6 $7 $8 $9 X,Y pos of 4 corners*
0 Add a 4 corners polygon primitive as box body*
4,1,4,$2,$3,$4,$5,$6,$7,$8,$9,$2,$3,0*
0 Add four circle primitives for the rounded corners*
1,1,$1+$1,$2,$3*
1,1,$1+$1,$4,$5*
1,1,$1+$1,$6,$7*
1,1,$1+$1,$8,$9*
0 Add four rect primitives between the rounded corners*
20,1,$1+$1,$2,$3,$4,$5,0*
20,1,$1+$1,$4,$5,$6,$7,0*
20,1,$1+$1,$6,$7,$8,$9,0*
20,1,$1+$1,$8,$9,$2,$3,0*%
G04 Aperture macros list end*
%ADD10RoundRect,0.250000X-0.700000X0.275000X-0.700000X-0.275000X0.700000X-0.275000X0.700000X0.275000X0*%
%ADD11RoundRect,0.250000X-0.312500X-0.625000X0.312500X-0.625000X0.312500X0.625000X-0.312500X0.625000X0*%
%ADD12RoundRect,0.250000X-0.325000X-0.650000X0.325000X-0.650000X0.325000X0.650000X-0.325000X0.650000X0*%
%ADD13RoundRect,0.250000X-0.650000X0.325000X-0.650000X-0.325000X0.650000X-0.325000X0.650000X0.325000X0*%
%ADD14RoundRect,0.250000X-0.275000X-0.700000X0.275000X-0.700000X0.275000X0.700000X-0.275000X0.700000X0*%
%ADD15C,2.400000*%
%ADD16C,2.850000*%
G04 APERTURE END LIST*
D10*
%TO.C,L7*%
X73985565Y-59990476D03*
X73985565Y-63140476D03*
%TD*%
D11*
%TO.C,R1*%
X44270908Y-59315500D03*
X47195908Y-59315500D03*
%TD*%
D10*
%TO.C,L5*%
X66640721Y-59990476D03*
X66640721Y-63140476D03*
%TD*%
D12*
%TO.C,C8*%
X79630778Y-56049029D03*
X82580778Y-56049029D03*
%TD*%
D13*
%TO.C,C1*%
X55623455Y-60090476D03*
X55623455Y-63040476D03*
%TD*%
%TO.C,C3*%
X62968299Y-60090476D03*
X62968299Y-63040476D03*
%TD*%
%TO.C,C7*%
X77657987Y-60090476D03*
X77657987Y-63040476D03*
%TD*%
D14*
%TO.C,L6*%
X74559350Y-56049029D03*
X77709350Y-56049029D03*
%TD*%
D12*
%TO.C,C2*%
X49802210Y-55990889D03*
X52752210Y-55990889D03*
%TD*%
D10*
%TO.C,L9*%
X81330409Y-59990476D03*
X81330409Y-63140476D03*
%TD*%
D13*
%TO.C,C5*%
X70313143Y-60090476D03*
X70313143Y-63040476D03*
%TD*%
%TO.C,C9*%
X85002832Y-60090476D03*
X85002832Y-63040476D03*
%TD*%
D10*
%TO.C,L1*%
X51951033Y-59990476D03*
X51951033Y-63140476D03*
%TD*%
%TO.C,L3*%
X59295877Y-59990476D03*
X59295877Y-63140476D03*
%TD*%
D14*
%TO.C,L2*%
X54673638Y-56049029D03*
X57823638Y-56049029D03*
%TD*%
D15*
%TO.C,J3*%
X38065000Y-59429307D03*
D16*
X35490000Y-56854307D03*
X35490000Y-62004307D03*
X40640000Y-62004307D03*
X40640000Y-56854307D03*
%TD*%
D14*
%TO.C,L4*%
X64616494Y-56049029D03*
X67766494Y-56049029D03*
%TD*%
D15*
%TO.C,J1*%
X99060000Y-59941437D03*
D16*
X96485000Y-57366437D03*
X96485000Y-62516437D03*
X101635000Y-62516437D03*
X101635000Y-57366437D03*
%TD*%
D12*
%TO.C,C6*%
X69687922Y-56049029D03*
X72637922Y-56049029D03*
%TD*%
%TO.C,C4*%
X59745066Y-55982058D03*
X62695066Y-55982058D03*
%TD*%
D11*
%TO.C,R2*%
X90168943Y-59941437D03*
X93093943Y-59941437D03*
%TD*%
D14*
%TO.C,L8*%
X84502210Y-56049029D03*
X87652210Y-56049029D03*
%TD*%
M02*
